<?xml version="1.0" encoding="UTF-8" standalone="no"?>
<!DOCTYPE svg PUBLIC "-//W3C//DTD SVG 1.1//EN" "http://www.w3.org/Graphics/SVG/1.1/DTD/svg11.dtd">
<svg version="1.1" xmlns="http://www.w3.org/2000/svg" xmlns:xlink="http://www.w3.org/1999/xlink" preserveAspectRatio="xMidYMid meet" viewBox="0 0 640 640" width="640" height="640"><defs><path d="M319.74 4.94L319.78 4.95L319.82 4.96L319.86 4.97L319.92 4.99L319.98 5.01L320.05 5.03L320.12 5.06L320.2 5.09L320.29 5.12L320.38 5.15L320.48 5.19L320.59 5.23L320.7 5.28L320.82 5.32L320.94 5.37L321.07 5.42L321.2 5.47L321.33 5.53L321.47 5.58L321.62 5.64L321.77 5.7L321.92 5.77L322.08 5.83L322.24 5.9L322.41 5.97L322.57 6.04L322.74 6.11L322.92 6.18L323.1 6.26L323.28 6.33L323.46 6.41L323.64 6.49L323.83 6.57L324.02 6.65L324.21 6.73L324.4 6.82L324.59 6.9L324.81 6.99L325.04 7.09L325.31 7.2L325.59 7.32L325.9 7.45L326.23 7.59L326.59 7.73L326.96 7.89L327.36 8.06L327.77 8.23L328.21 8.41L328.66 8.6L329.13 8.79L329.62 9L330.12 9.21L330.64 9.42L331.17 9.64L331.72 9.87L332.28 10.1L332.85 10.34L333.43 10.58L334.03 10.83L334.64 11.08L335.25 11.34L335.88 11.6L336.51 11.86L337.16 12.12L337.8 12.39L338.46 12.66L339.12 12.94L339.79 13.21L340.46 13.49L341.13 13.77L341.81 14.05L342.49 14.33L343.17 14.61L343.85 14.89L344.53 15.17L345.21 15.45L345.89 15.72L346.58 16.01L347.29 16.3L348.03 16.61L348.79 16.92L349.56 17.24L350.36 17.57L351.18 17.91L352.01 18.25L352.87 18.61L353.73 18.96L354.61 19.33L355.5 19.7L356.4 20.07L357.32 20.45L358.24 20.83L359.17 21.22L360.11 21.61L361.05 22L362 22.39L362.95 22.79L363.9 23.18L364.86 23.58L365.81 23.98L366.76 24.37L367.71 24.77L368.66 25.16L369.6 25.55L370.54 25.94L371.47 26.32L372.39 26.71L373.3 27.08L374.2 27.46L375.09 27.83L375.97 28.19L376.83 28.54L377.68 28.9L378.52 29.24L379.33 29.57L380.13 29.9L380.9 30.22L381.68 30.54L382.46 30.86L383.26 31.19L384.06 31.52L384.87 31.85L385.69 32.19L386.52 32.53L387.35 32.88L388.19 33.22L389.03 33.57L389.87 33.92L390.71 34.26L391.56 34.61L392.4 34.96L393.25 35.31L394.09 35.66L394.92 36.01L395.76 36.35L396.58 36.69L397.41 37.03L398.22 37.37L399.03 37.7L399.82 38.03L400.61 38.36L401.39 38.68L402.15 39L402.9 39.31L403.64 39.62L404.36 39.92L405.06 40.21L405.75 40.49L406.42 40.77L407.07 41.04L407.71 41.31L408.32 41.56L408.9 41.81L409.47 42.04L410.01 42.27L410.53 42.48L411.02 42.69L411.95 43.07L412.91 43.47L413.91 43.88L414.94 44.31L416 44.75L417.1 45.21L418.24 45.68L419.42 46.17L420.64 46.67L421.9 47.19L423.2 47.73L424.55 48.29L425.94 48.87L427.38 49.46L428.86 50.08L430.39 50.71L431.97 51.36L433.6 52.04L435.29 52.74L437.02 53.46L438.81 54.2L440.66 54.96L442.56 55.75L444.51 56.56L446.53 57.4L448.61 58.26L450.74 59.14L452.94 60.05L455.2 60.99L457.53 61.95L459.92 62.94L462.37 63.96L464.9 65.01L467.49 66.08L470.16 67.19L472.89 68.32L475.7 69.48L478.58 70.68L481.53 71.9L484.56 73.15L485.59 73.58L486.64 74.02L487.71 74.46L488.79 74.91L489.88 75.36L490.98 75.82L492.1 76.28L493.22 76.75L494.35 77.21L495.48 77.68L496.62 78.16L497.76 78.63L498.91 79.1L500.05 79.58L501.2 80.05L502.34 80.52L503.48 80.99L504.61 81.46L505.74 81.93L506.86 82.39L507.97 82.85L509.07 83.3L510.16 83.75L511.23 84.2L512.29 84.64L513.34 85.07L514.36 85.49L515.37 85.91L516.36 86.32L517.33 86.72L518.27 87.11L519.19 87.49L520.09 87.86L520.96 88.22L521.8 88.56L522.61 88.9L523.39 89.22L524.14 89.53L524.85 89.82L525.53 90.1L526.2 90.38L526.85 90.65L527.51 90.92L528.15 91.19L528.79 91.45L529.42 91.72L530.05 91.98L530.66 92.23L531.27 92.49L531.86 92.74L532.45 92.99L533.02 93.24L533.58 93.48L534.14 93.71L534.67 93.95L535.2 94.17L535.71 94.4L536.21 94.61L536.69 94.83L537.16 95.03L537.61 95.23L538.04 95.43L538.46 95.62L538.86 95.8L539.25 95.97L539.61 96.14L539.96 96.3L540.28 96.45L540.59 96.6L540.88 96.73L541.14 96.86L541.38 96.98L541.6 97.09L541.8 97.19L541.98 97.28L542.13 97.37L542.25 97.44L542.35 97.5L542.43 97.56L542.48 97.6L542.54 97.67L542.62 97.79L542.71 97.95L542.83 98.16L542.96 98.43L543.12 98.75L543.3 99.13L543.51 99.58L543.74 100.09L544.01 100.68L544.3 101.34L544.62 102.07L544.98 102.89L545.37 103.79L545.79 104.78L546.25 105.86L546.75 107.03L547.29 108.31L547.87 109.68L548.49 111.16L549.16 112.75L549.87 114.45L550.63 116.26L551.44 118.19L552.3 120.25L553.21 122.43L554.17 124.74L555.18 127.18L556.25 129.76L557.38 132.47L558.57 135.33L559.81 138.34L561.12 141.49L562.49 144.8L563.92 148.27L565.42 151.89L566.99 155.68L568.63 159.63L570.33 163.76L572.11 168.06L572.46 168.91L572.82 169.77L573.18 170.64L573.54 171.52L573.9 172.4L574.27 173.29L574.64 174.17L575 175.06L575.74 176.84L576.11 177.73L576.48 178.62L576.84 179.5L577.2 180.38L577.57 181.26L577.93 182.13L578.28 182.99L578.63 183.84L578.98 184.69L579.33 185.52L579.67 186.34L580 187.15L580.33 187.95L580.66 188.74L580.98 189.5L581.29 190.26L581.59 190.99L581.89 191.71L582.18 192.4L582.46 193.08L582.73 193.74L582.99 194.37L583.24 194.98L583.49 195.57L583.72 196.13L583.94 196.66L584.15 197.17L584.35 197.65L584.54 198.1L584.71 198.52L585.01 199.24L585.32 200L585.66 200.82L586.02 201.69L586.4 202.6L586.8 203.57L587.22 204.58L587.65 205.64L588.11 206.74L588.58 207.89L589.07 209.08L589.58 210.31L590.11 211.58L590.65 212.89L591.21 214.24L591.79 215.63L592.38 217.06L592.98 218.52L593.6 220.02L594.24 221.55L594.89 223.11L595.55 224.7L596.22 226.33L596.91 227.99L597.6 229.67L598.31 231.38L599.03 233.12L599.77 234.89L600.51 236.68L601.26 238.49L602.02 240.32L602.79 242.18L603.57 244.06L604.36 245.96L605.15 247.88L605.95 249.81L606.76 251.76L607.58 253.73L608.4 255.71L609.23 257.7L609.43 258.2L609.66 258.73L609.89 259.3L610.15 259.91L610.41 260.55L610.69 261.22L610.98 261.92L611.28 262.65L611.6 263.41L611.93 264.2L612.26 265.01L612.61 265.85L612.97 266.72L613.34 267.6L613.71 268.51L614.1 269.43L614.49 270.38L614.89 271.35L615.29 272.33L615.7 273.32L616.12 274.33L616.55 275.36L616.97 276.39L617.41 277.44L617.84 278.49L618.28 279.55L618.72 280.62L619.17 281.7L619.61 282.78L620.06 283.86L620.51 284.95L620.96 286.03L621.4 287.12L621.85 288.21L622.3 289.29L622.74 290.36L623.19 291.44L623.63 292.5L624.06 293.56L624.49 294.61L635 320.04L628.84 334.88L628.57 335.52L628.29 336.21L627.99 336.94L627.67 337.72L627.33 338.54L626.98 339.4L626.61 340.31L626.22 341.25L625.82 342.23L625.4 343.24L624.97 344.29L624.52 345.37L624.06 346.48L623.59 347.62L623.11 348.78L622.62 349.98L622.12 351.19L621.6 352.43L621.08 353.7L620.55 354.98L620.02 356.28L619.47 357.59L618.92 358.92L618.37 360.27L617.81 361.63L617.24 362.99L616.67 364.37L616.1 365.75L615.53 367.14L614.95 368.54L614.37 369.94L613.79 371.33L613.22 372.73L612.64 374.13L612.06 375.52L611.49 376.9L610.92 378.28L610.35 379.66L609.79 381.02L609.23 382.37L608.15 384.97L607.11 387.48L606.1 389.91L605.13 392.25L604.19 394.52L603.28 396.71L602.4 398.84L601.54 400.91L600.71 402.92L599.9 404.88L599.11 406.78L598.33 408.65L597.58 410.47L596.84 412.26L596.11 414.02L595.39 415.76L594.68 417.47L593.98 419.17L593.28 420.86L592.58 422.54L591.89 424.21L591.19 425.9L590.49 427.58L589.79 429.28L589.08 431L588.36 432.74L587.63 434.5L586.89 436.29L586.13 438.12L585.36 439.99L584.57 441.9L583.76 443.86L582.93 445.87L582.07 447.95L581.18 450.08L580.27 452.28L579.33 454.56L578.36 456.91L577.35 459.34L576.31 461.86L575.93 462.79L575.55 463.71L575.17 464.64L574.79 465.57L574.41 466.49L574.03 467.41L573.65 468.33L573.28 469.25L572.9 470.15L572.53 471.06L572.16 471.95L571.79 472.84L571.43 473.72L571.07 474.58L570.71 475.44L570.36 476.29L570.02 477.12L569.68 477.94L569.34 478.74L569.02 479.53L568.69 480.3L568.38 481.06L568.07 481.79L567.78 482.51L567.49 483.2L567.2 483.88L566.93 484.53L566.67 485.16L566.42 485.77L566.17 486.35L565.94 486.9L565.72 487.43L565.51 487.93L565.31 488.4L565.13 488.84L564.96 489.26L564.8 489.64L564.65 489.98L564.52 490.3L564.4 490.58L564.28 490.85L564.15 491.16L564.01 491.51L563.85 491.88L563.68 492.29L563.49 492.73L563.3 493.2L563.09 493.7L562.87 494.23L562.64 494.78L562.4 495.36L562.15 495.96L561.89 496.59L561.62 497.25L561.34 497.92L561.05 498.62L560.75 499.34L560.45 500.07L560.13 500.83L559.81 501.6L559.49 502.39L559.16 503.19L558.82 504.01L558.47 504.85L557.77 506.55L557.41 507.42L557.04 508.3L556.68 509.19L556.31 510.09L555.93 510.99L555.56 511.9L555.18 512.82L554.8 513.74L554.42 514.66L554.03 515.59L553.65 516.51L553.26 517.44L552.88 518.37L552.5 519.29L552.11 520.21L551.73 521.13L551.36 522.03L550.98 522.93L550.61 523.81L550.25 524.69L549.89 525.55L549.53 526.4L549.18 527.23L548.83 528.06L548.49 528.87L548.16 529.66L547.83 530.44L547.51 531.2L547.19 531.94L546.88 532.66L546.58 533.37L546.29 534.05L546 534.72L545.73 535.36L545.46 535.98L545.2 536.58L544.95 537.15L544.71 537.7L544.49 538.22L544.27 538.72L544.06 539.19L543.86 539.64L543.68 540.05L543.5 540.44L543.34 540.8L543.19 541.12L543.06 541.42L542.93 541.68L542.82 541.91L542.72 542.11L542.64 542.27L542.57 542.4L542.52 542.49L542.48 542.55L542.42 542.59L542.33 542.64L542.19 542.71L542.02 542.8L541.8 542.91L541.56 543.02L541.27 543.16L540.95 543.31L540.6 543.47L540.21 543.64L539.79 543.83L539.34 544.03L538.86 544.25L538.35 544.47L537.81 544.71L537.24 544.96L536.64 545.22L536.02 545.49L535.36 545.77L534.69 546.06L533.99 546.37L533.26 546.68L532.52 547L531.75 547.33L530.96 547.66L530.15 548.01L529.32 548.36L528.47 548.72L527.61 549.09L526.72 549.46L525.82 549.84L524.91 550.22L523.98 550.61L523.03 551.01L522.08 551.41L521.11 551.82L520.13 552.22L519.14 552.64L518.14 553.05L517.13 553.47L516.11 553.9L515.07 554.33L514.01 554.77L512.93 555.22L511.83 555.68L510.72 556.14L509.6 556.6L508.47 557.08L507.32 557.55L506.16 558.03L505 558.52L503.83 559.01L502.65 559.49L501.47 559.99L500.29 560.48L499.1 560.97L497.92 561.46L496.74 561.95L495.56 562.44L494.38 562.93L493.21 563.41L492.05 563.89L490.9 564.37L489.76 564.84L488.63 565.31L487.51 565.77L486.41 566.23L485.33 566.68L484.26 567.12L483.21 567.56L482.18 567.98L481.17 568.4L480.18 568.8L479.22 569.2L478.29 569.59L477.38 569.96L476.5 570.32L475.65 570.67L474.84 571.01L474.05 571.33L472.79 571.86L471.5 572.39L470.19 572.94L468.85 573.5L467.48 574.06L466.08 574.64L464.66 575.23L463.2 575.84L461.72 576.45L460.21 577.08L458.66 577.72L457.09 578.37L455.48 579.04L453.85 579.71L452.18 580.41L450.47 581.11L448.74 581.83L446.97 582.56L445.16 583.31L443.32 584.07L441.45 584.84L439.54 585.63L437.59 586.44L435.61 587.26L433.59 588.1L431.53 588.95L429.43 589.82L427.29 590.7L425.11 591.6L422.9 592.52L420.64 593.45L418.34 594.4L416 595.37L413.62 596.35L411.19 597.35L408.73 598.37L406.22 599.41L403.66 600.47L401.06 601.54L398.41 602.64L397.9 602.85L397.35 603.08L396.79 603.31L396.2 603.56L395.59 603.81L394.96 604.07L394.31 604.34L393.64 604.62L392.95 604.9L392.25 605.2L391.53 605.49L390.8 605.8L390.05 606.11L389.29 606.42L388.52 606.74L387.73 607.07L386.94 607.39L386.14 607.73L385.33 608.06L384.51 608.4L383.69 608.74L382.86 609.08L382.03 609.42L381.2 609.77L380.36 610.11L379.53 610.46L378.69 610.8L377.86 611.15L377.02 611.49L376.19 611.84L375.37 612.18L374.55 612.52L373.74 612.85L372.93 613.19L372.13 613.52L371.34 613.84L370.56 614.17L369.8 614.48L369.04 614.8L368.3 615.1L367.55 615.41L366.79 615.73L366.01 616.05L365.21 616.38L364.4 616.72L363.58 617.06L362.74 617.4L361.89 617.76L361.04 618.11L360.17 618.47L359.29 618.83L358.41 619.2L357.52 619.56L356.62 619.93L355.73 620.31L354.83 620.68L353.92 621.05L353.02 621.42L352.12 621.8L351.22 622.17L350.32 622.54L349.42 622.91L348.54 623.28L347.65 623.64L346.78 624L345.91 624.36L345.05 624.72L344.2 625.07L343.37 625.41L342.54 625.75L341.73 626.09L340.94 626.41L340.16 626.73L339.39 627.05L338.65 627.36L337.93 627.65L337.22 627.95L336.54 628.23L335.88 628.5L335.24 628.76L319.97 635.06L304.77 628.76L304.13 628.5L303.47 628.23L302.78 627.95L302.07 627.65L301.34 627.36L300.59 627.05L299.82 626.73L299.04 626.41L298.24 626.09L297.43 625.75L296.6 625.41L295.76 625.07L294.91 624.72L294.05 624.36L293.18 624L292.31 623.64L291.42 623.28L290.53 622.91L289.63 622.54L288.73 622.17L287.83 621.8L286.93 621.42L286.03 621.05L285.12 620.68L284.22 620.31L283.32 619.93L282.43 619.56L281.54 619.2L280.65 618.83L279.78 618.47L278.91 618.11L278.05 617.76L277.2 617.4L276.36 617.06L275.54 616.72L274.73 616.38L273.93 616.05L273.15 615.73L272.39 615.41L271.65 615.1L270.9 614.8L270.15 614.48L269.38 614.17L268.6 613.84L267.81 613.52L267.01 613.19L266.21 612.85L265.39 612.52L264.57 612.18L263.75 611.84L262.92 611.49L262.09 611.15L261.25 610.8L260.42 610.46L259.58 610.11L258.75 609.77L257.91 609.42L257.08 609.08L256.25 608.74L255.43 608.4L254.62 608.06L253.81 607.73L253 607.39L252.21 607.07L251.43 606.74L250.66 606.42L249.89 606.11L249.15 605.8L248.41 605.49L247.69 605.2L246.99 604.9L246.3 604.62L245.63 604.34L244.98 604.07L244.35 603.81L243.74 603.56L243.15 603.31L242.59 603.08L242.05 602.85L241.53 602.64L241.01 602.42L240.46 602.19L239.87 601.95L239.26 601.69L238.61 601.43L237.94 601.15L237.25 600.86L236.53 600.56L235.78 600.25L235.01 599.93L234.22 599.6L233.41 599.27L232.57 598.92L231.72 598.57L230.86 598.21L229.97 597.85L229.07 597.47L228.16 597.1L227.23 596.71L226.3 596.33L225.35 595.93L224.39 595.54L223.43 595.14L222.45 594.74L221.47 594.33L220.49 593.92L219.5 593.52L218.51 593.11L217.52 592.7L216.53 592.29L215.54 591.88L214.55 591.47L213.57 591.06L212.59 590.65L211.61 590.25L210.65 589.85L209.68 589.45L208.73 589.06L207.79 588.67L206.86 588.28L205.93 587.89L204.97 587.49L203.99 587.09L202.99 586.68L201.98 586.26L200.95 585.83L199.91 585.4L198.85 584.96L197.78 584.51L196.7 584.07L195.61 583.61L194.51 583.16L193.4 582.7L192.29 582.24L191.18 581.78L190.06 581.32L188.94 580.85L187.82 580.39L186.7 579.93L185.59 579.46L184.48 579L183.37 578.55L182.27 578.09L181.18 577.64L180.1 577.19L179.02 576.75L177.96 576.31L176.92 575.88L175.89 575.45L174.87 575.03L173.87 574.62L172.89 574.22L171.93 573.82L171 573.43L170.08 573.06L169.19 572.69L168.32 572.33L167.48 571.99L166.67 571.65L165.89 571.33L165.11 571.01L164.29 570.67L163.44 570.32L162.56 569.96L161.66 569.59L160.72 569.2L159.76 568.8L158.78 568.4L157.77 567.98L156.75 567.56L155.7 567.12L154.63 566.68L153.55 566.23L152.45 565.77L151.33 565.31L150.2 564.84L149.06 564.37L147.91 563.89L146.75 563.41L145.59 562.93L144.41 562.44L143.24 561.95L142.06 561.46L140.87 560.97L139.69 560.48L138.51 559.99L137.33 559.49L136.15 559.01L134.98 558.52L133.81 558.03L132.65 557.55L131.5 557.08L130.37 556.6L129.24 556.14L128.13 555.68L127.03 555.22L125.95 554.77L124.89 554.33L123.84 553.9L122.82 553.47L121.81 553.05L120.82 552.64L119.83 552.22L118.85 551.82L117.89 551.41L116.93 551.01L115.99 550.61L115.06 550.22L114.15 549.84L113.25 549.46L112.37 549.09L111.5 548.72L110.65 548.36L109.82 548.01L109.01 547.66L108.22 547.33L107.45 547L106.71 546.68L105.98 546.37L105.28 546.06L104.6 545.77L103.95 545.49L103.32 545.22L102.73 544.96L102.15 544.71L101.61 544.47L101.1 544.25L100.61 544.03L100.16 543.83L99.74 543.64L99.35 543.47L99 543.31L98.68 543.16L98.39 543.02L98.14 542.91L97.93 542.8L97.75 542.71L97.62 542.64L97.52 542.59L97.46 542.55L97.42 542.49L97.37 542.4L97.3 542.27L97.22 542.11L97.12 541.91L97.01 541.68L96.89 541.42L96.75 541.12L96.6 540.8L96.44 540.44L96.27 540.05L96.08 539.64L95.88 539.19L95.68 538.72L95.46 538.22L95.23 537.7L94.99 537.15L94.74 536.58L94.48 535.98L94.21 535.36L93.94 534.72L93.65 534.05L93.36 533.37L93.06 532.66L92.75 531.94L92.44 531.2L92.11 530.44L91.79 529.66L91.45 528.87L91.11 528.06L90.76 527.23L90.41 526.4L90.05 525.55L89.69 524.69L89.33 523.81L88.96 522.93L88.59 522.03L88.21 521.13L87.83 520.21L87.45 519.29L87.06 518.37L86.68 517.44L86.29 516.51L85.91 515.59L85.53 514.66L85.15 513.74L84.77 512.82L84.39 511.9L84.01 510.99L83.64 510.09L83.27 509.19L82.9 508.3L82.53 507.42L82.18 506.55L81.47 504.85L81.13 504.01L80.79 503.19L80.45 502.39L80.13 501.6L79.81 500.83L79.5 500.07L79.19 499.34L78.89 498.62L78.61 497.92L78.33 497.25L78.06 496.59L77.79 495.96L77.54 495.36L77.3 494.78L77.07 494.23L76.85 493.7L76.64 493.2L76.45 492.73L76.26 492.29L76.09 491.88L75.93 491.51L75.79 491.16L75.66 490.85L75.54 490.58L75.42 490.3L75.29 489.98L75.15 489.64L74.99 489.26L74.81 488.84L74.63 488.4L74.43 487.93L74.22 487.43L74 486.9L73.77 486.35L73.53 485.77L73.27 485.16L73.01 484.53L72.74 483.88L72.46 483.2L72.17 482.51L71.87 481.79L71.56 481.06L71.25 480.3L70.93 479.53L70.6 478.74L70.27 477.94L69.93 477.12L69.58 476.29L69.23 475.44L68.87 474.58L68.52 473.72L68.15 472.84L67.78 471.95L67.42 471.06L67.04 470.15L66.67 469.25L66.29 468.33L65.91 467.41L65.53 466.49L65.15 465.57L64.77 464.64L64.39 463.71L64.01 462.79L63.63 461.86L62.53 459.2L61.47 456.63L60.44 454.15L59.45 451.76L58.5 449.46L57.58 447.23L56.68 445.07L55.82 442.99L54.98 440.96L54.17 438.99L53.37 437.08L52.6 435.21L51.85 433.39L51.11 431.6L50.38 429.85L49.67 428.12L48.96 426.42L48.27 424.74L47.57 423.07L46.89 421.41L46.2 419.75L45.51 418.09L44.82 416.43L44.13 414.75L43.43 413.06L42.72 411.34L42 409.6L41.26 407.83L40.52 406.02L39.75 404.18L38.97 402.28L38.16 400.34L37.33 398.34L36.48 396.28L35.6 394.15L34.69 391.96L33.75 389.69L32.77 387.33L31.76 384.9L30.72 382.37L30.16 381.02L29.6 379.67L29.03 378.3L28.47 376.94L27.9 375.57L27.34 374.2L26.77 372.83L26.2 371.47L25.64 370.11L25.08 368.75L24.52 367.39L23.96 366.05L23.41 364.71L22.86 363.39L22.32 362.08L21.78 360.78L21.25 359.49L20.73 358.23L20.21 356.98L19.7 355.75L19.2 354.54L18.71 353.35L18.23 352.19L17.76 351.05L17.3 349.94L16.86 348.86L16.42 347.8L16 346.78L15.59 345.79L15.19 344.84L14.81 343.92L14.45 343.03L14.1 342.19L13.77 341.38L13.45 340.62L13.16 339.9L12.88 339.22L12.62 338.59L12.38 338.01L12.16 337.48L11.95 336.97L11.74 336.47L11.53 335.97L11.32 335.46L11.11 334.97L10.9 334.47L10.7 333.97L10.49 333.48L10.29 333L10.09 332.52L9.89 332.04L9.69 331.57L9.5 331.1L9.31 330.64L9.12 330.19L8.93 329.75L8.75 329.31L8.57 328.88L8.39 328.47L8.22 328.06L8.05 327.66L7.88 327.27L7.72 326.89L7.57 326.52L7.42 326.17L7.27 325.83L7.13 325.5L6.99 325.18L6.86 324.88L6.74 324.59L6.62 324.32L6.51 324.06L6.4 323.82L6.3 323.6L6.21 323.39L6.12 323.2L6.05 323.03L5.97 322.88L5.91 322.74L5.85 322.63L5.77 322.44L5.68 322.27L5.61 322.1L5.53 321.94L5.46 321.78L5.4 321.64L5.34 321.49L5.28 321.36L5.23 321.23L5.19 321.1L5.15 320.98L5.11 320.86L5.08 320.74L5.06 320.62L5.03 320.51L5.02 320.4L5.01 320.29L5 320.18L5 320.07L5 319.96L5.01 319.85L5.03 319.73L5.05 319.62L5.07 319.5L5.1 319.37L5.14 319.25L5.18 319.12L5.22 318.98L5.27 318.84L5.33 318.7L5.39 318.55L5.46 318.39L5.53 318.22L5.61 318.05L5.7 317.87L5.79 317.68L5.88 317.48L5.98 317.27L6.09 317.05L6.2 316.82L6.26 316.68L6.32 316.53L6.38 316.39L6.45 316.24L6.51 316.09L6.58 315.93L6.65 315.77L6.72 315.61L6.79 315.45L6.86 315.29L6.93 315.12L7 314.95L7.08 314.78L7.15 314.61L7.23 314.43L7.3 314.26L7.38 314.09L7.45 313.91L7.53 313.73L7.68 313.38L7.76 313.21L7.83 313.03L7.91 312.86L7.98 312.68L8.06 312.51L8.13 312.34L8.21 312.17L8.28 312L8.35 311.83L8.42 311.67L8.49 311.5L8.56 311.34L8.63 311.18L8.69 311.03L8.76 310.88L8.82 310.73L8.89 310.58L8.95 310.44L9 310.3L9.06 310.15L9.13 309.98L9.22 309.77L9.31 309.54L9.42 309.27L9.54 308.98L9.66 308.67L9.8 308.32L9.95 307.95L10.11 307.56L10.28 307.15L10.46 306.71L10.65 306.25L10.84 305.77L11.05 305.26L11.26 304.74L11.48 304.2L11.71 303.64L11.95 303.06L12.19 302.47L12.44 301.86L12.7 301.23L12.96 300.59L13.23 299.93L13.51 299.27L13.79 298.59L14.07 297.89L14.36 297.19L14.66 296.48L14.95 295.75L15.26 295.02L15.56 294.28L15.87 293.54L16.19 292.78L16.5 292.02L16.82 291.26L17.14 290.49L17.46 289.72L17.78 288.95L18.11 288.17L18.43 287.38L18.76 286.58L19.09 285.77L19.43 284.95L19.77 284.13L20.11 283.29L20.46 282.45L20.81 281.61L21.16 280.76L21.51 279.9L21.86 279.05L22.21 278.19L22.57 277.33L22.92 276.48L23.27 275.62L23.63 274.77L23.98 273.93L24.33 273.08L24.67 272.24L25.02 271.41L25.36 270.59L25.7 269.78L26.03 268.97L26.36 268.18L26.68 267.39L27 266.62L27.32 265.86L27.63 265.12L27.93 264.4L28.22 263.69L28.51 262.99L28.79 262.32L29.07 261.66L29.33 261.03L29.59 260.41L29.83 259.82L30.07 259.26L30.3 258.71L30.51 258.19L30.72 257.7L31.16 256.63L31.63 255.48L32.13 254.28L32.65 253.02L33.19 251.71L33.75 250.35L34.33 248.94L34.93 247.49L35.55 246L36.18 244.48L36.83 242.92L37.49 241.33L38.15 239.71L38.83 238.07L39.52 236.42L40.21 234.74L40.91 233.06L41.61 231.36L42.32 229.66L43.03 227.96L43.73 226.25L44.44 224.55L45.14 222.86L45.83 221.18L46.53 219.51L47.21 217.86L47.88 216.24L48.55 214.63L49.2 213.06L49.84 211.51L50.47 210L51.08 208.53L51.67 207.1L52.25 205.71L52.8 204.37L53.34 203.09L53.85 201.86L54.33 200.68L54.8 199.57L55.23 198.52L55.4 198.1L55.59 197.65L55.79 197.17L56 196.66L56.22 196.13L56.45 195.57L56.7 194.98L56.95 194.37L57.21 193.74L57.49 193.08L57.77 192.4L58.05 191.71L58.35 190.99L58.65 190.26L58.97 189.5L59.28 188.74L59.61 187.95L59.94 187.15L60.27 186.34L60.61 185.52L60.96 184.69L61.31 183.84L61.66 182.99L62.02 182.13L62.38 181.26L62.74 180.38L63.1 179.5L63.47 178.62L63.83 177.73L64.2 176.84L64.94 175.06L65.31 174.17L65.67 173.29L66.04 172.4L66.4 171.52L66.77 170.64L67.13 169.77L67.48 168.91L67.84 168.06L69.61 163.76L71.32 159.63L72.95 155.68L74.52 151.89L76.02 148.27L77.45 144.8L78.82 141.49L80.13 138.34L81.37 135.33L82.56 132.47L83.69 129.76L84.76 127.18L85.77 124.74L86.74 122.43L87.64 120.25L88.5 118.19L89.31 116.26L90.07 114.45L90.78 112.75L91.45 111.16L92.07 109.68L92.65 108.31L93.19 107.03L93.69 105.86L94.15 104.78L94.58 103.79L94.97 102.89L95.32 102.07L95.64 101.34L95.94 100.68L96.2 100.09L96.43 99.58L96.64 99.13L96.82 98.75L96.98 98.43L97.11 98.16L97.23 97.95L97.32 97.79L97.4 97.67L97.46 97.6L97.51 97.56L97.59 97.5L97.69 97.44L97.82 97.37L97.97 97.28L98.14 97.19L98.34 97.09L98.57 96.98L98.81 96.86L99.08 96.73L99.36 96.6L99.67 96.45L100 96.3L100.35 96.14L100.71 95.97L101.1 95.8L101.5 95.62L101.92 95.43L102.36 95.23L102.81 95.03L103.28 94.83L103.76 94.61L104.26 94.4L104.77 94.17L105.3 93.95L105.84 93.71L106.39 93.48L106.95 93.24L107.52 92.99L108.11 92.74L108.7 92.49L109.31 92.23L109.92 91.98L110.54 91.72L111.17 91.45L111.81 91.19L112.45 90.92L113.1 90.65L113.75 90.38L114.41 90.1L115.1 89.82L115.82 89.53L116.57 89.22L117.35 88.9L118.17 88.56L119.01 88.22L119.88 87.86L120.78 87.49L121.7 87.11L122.65 86.72L123.61 86.32L124.6 85.91L125.61 85.49L126.64 85.07L127.68 84.64L128.74 84.2L129.82 83.75L130.9 83.3L132 82.85L133.11 82.39L134.23 81.93L135.35 81.46L136.49 80.99L137.62 80.52L138.76 80.05L139.91 79.58L141.05 79.1L142.19 78.63L143.33 78.16L144.47 77.68L145.6 77.21L146.73 76.75L147.85 76.28L148.96 75.82L150.07 75.36L151.16 74.91L152.24 74.46L153.3 74.02L154.35 73.58L155.38 73.15L158.41 71.9L161.37 70.68L164.25 69.48L167.05 68.32L169.79 67.19L172.45 66.08L175.04 65.01L177.57 63.96L180.02 62.94L182.42 61.95L184.74 60.99L187 60.05L189.2 59.14L191.34 58.26L193.41 57.4L195.43 56.56L197.39 55.75L199.29 54.96L201.13 54.2L202.92 53.46L204.66 52.74L206.34 52.04L207.97 51.36L209.55 50.71L211.08 50.08L212.57 49.46L214 48.87L215.39 48.29L216.74 47.73L218.04 47.19L219.3 46.67L220.52 46.17L221.7 45.68L222.84 45.21L223.94 44.75L225.01 44.31L226.04 43.88L227.03 43.47L227.99 43.07L228.92 42.69L229.41 42.48L229.93 42.27L230.47 42.04L231.04 41.81L231.63 41.56L232.24 41.31L232.87 41.04L233.52 40.77L234.19 40.49L234.88 40.21L235.58 39.92L236.31 39.62L237.04 39.31L237.79 39L238.56 38.68L239.33 38.36L240.12 38.03L240.92 37.7L241.72 37.37L242.54 37.03L243.36 36.69L244.19 36.35L245.02 36.01L245.86 35.66L246.7 35.31L247.54 34.96L248.38 34.61L249.23 34.26L250.07 33.92L250.92 33.57L251.76 33.22L252.59 32.88L253.42 32.53L254.25 32.19L255.07 31.85L255.88 31.52L256.69 31.19L257.48 30.86L258.27 30.54L259.04 30.22L259.82 29.9L260.61 29.57L261.43 29.24L262.26 28.9L263.11 28.54L263.97 28.19L264.85 27.83L265.74 27.46L266.64 27.08L267.55 26.71L268.48 26.32L269.4 25.94L270.34 25.55L271.28 25.16L272.23 24.77L273.18 24.37L274.13 23.98L275.09 23.58L276.04 23.18L276.99 22.79L277.95 22.39L278.89 22L279.84 21.61L280.77 21.22L281.7 20.83L282.63 20.45L283.54 20.07L284.44 19.7L285.33 19.33L286.21 18.96L287.08 18.61L287.93 18.25L288.76 17.91L289.58 17.57L290.38 17.24L291.16 16.92L291.92 16.61L292.65 16.3L293.37 16.01L294.06 15.72L294.74 15.44L295.41 15.16L296.09 14.87L296.77 14.59L297.45 14.31L298.13 14.02L298.8 13.74L299.47 13.46L300.14 13.18L300.8 12.91L301.45 12.63L302.1 12.36L302.75 12.1L303.38 11.83L304.01 11.57L304.63 11.31L305.24 11.06L305.84 10.81L306.43 10.56L307.01 10.32L307.57 10.09L308.12 9.86L308.66 9.63L309.19 9.42L309.69 9.2L310.19 9L310.67 8.8L311.13 8.61L311.57 8.43L311.99 8.25L312.4 8.08L312.78 7.92L313.15 7.77L313.49 7.63L313.81 7.49L314.11 7.37L314.39 7.25L314.64 7.15L314.87 7.05L315.07 6.97L315.26 6.89L315.44 6.8L315.63 6.72L315.81 6.64L315.99 6.56L316.17 6.48L316.34 6.4L316.52 6.33L316.69 6.25L316.85 6.18L317.02 6.11L317.18 6.04L317.34 5.97L317.49 5.9L317.64 5.83L317.79 5.77L317.93 5.71L318.06 5.65L318.2 5.59L318.33 5.53L318.45 5.48L318.57 5.43L318.68 5.38L318.79 5.33L318.89 5.29L318.99 5.24L319.08 5.2L319.17 5.17L319.25 5.13L319.32 5.1L319.39 5.07L319.45 5.04L319.51 5.02L319.6 4.98L319.63 4.97L319.66 4.95L319.69 4.94L319.7 4.93L319.72 4.94L319.74 4.94ZM445.33 417.23L444.94 417.75L444.41 418.48L443.75 419.4L442.98 420.5L442.09 421.77L441.1 423.2L440.02 424.77L438.85 426.47L437.6 428.29L436.28 430.22L434.9 432.26L433.46 434.37L431.97 436.57L430.45 438.82L428.89 441.13L427.3 443.47L425.7 445.85L424.09 448.24L422.48 450.64L420.88 453.02L419.29 455.39L417.72 457.73L416.19 460.03L414.69 462.28L413.24 464.46L411.84 466.56L410.5 468.57L409.24 470.49L408.05 472.29L406.95 473.97L405.93 475.51L405.02 476.9L404.22 478.14L403.54 479.21L402.98 480.09L402.55 480.79L402.26 481.27L402.13 481.54L402.12 481.59L402.12 481.66L402.15 481.74L402.18 481.83L402.24 481.94L402.3 482.06L402.39 482.2L402.48 482.35L402.59 482.52L402.72 482.7L402.86 482.89L403.01 483.1L403.18 483.32L403.36 483.55L403.55 483.79L403.76 484.05L403.98 484.32L404.22 484.61L404.47 484.9L404.73 485.21L405 485.53L405.28 485.86L405.58 486.21L405.89 486.56L406.21 486.93L406.55 487.3L406.9 487.69L407.25 488.09L407.62 488.5L408.01 488.92L408.4 489.35L408.8 489.79L409.22 490.24L409.64 490.7L410.08 491.17L410.53 491.65L410.99 492.14L411.45 492.64L411.93 493.14L412.42 493.66L423.07 504.8L444.71 505.29L445.6 505.31L446.49 505.33L447.36 505.35L448.23 505.36L449.09 505.38L449.93 505.4L450.76 505.41L451.58 505.43L452.39 505.44L453.18 505.46L453.96 505.47L454.72 505.48L455.46 505.49L456.19 505.5L456.9 505.51L457.59 505.52L458.26 505.52L458.92 505.53L459.55 505.54L460.16 505.54L460.75 505.54L461.32 505.55L461.86 505.55L462.38 505.55L462.87 505.55L463.34 505.55L463.78 505.54L464.2 505.54L464.59 505.54L464.95 505.53L465.28 505.53L465.58 505.52L465.85 505.51L466.09 505.5L466.3 505.49L466.48 505.48L466.62 505.47L466.73 505.46L466.8 505.44L466.84 505.43L466.85 505.37L466.84 505.25L466.81 505.05L466.76 504.79L466.7 504.45L466.62 504.05L466.53 503.58L466.41 503.05L466.29 502.46L466.15 501.81L465.99 501.09L465.82 500.32L465.64 499.49L465.44 498.61L465.23 497.67L465 496.68L464.76 495.64L464.51 494.55L464.25 493.42L463.98 492.23L463.69 491L463.4 489.73L463.09 488.42L462.77 487.06L462.44 485.67L462.11 484.23L461.76 482.76L461.4 481.26L461.04 479.72L460.66 478.15L460.28 476.55L459.89 474.93L459.5 473.27L459.09 471.59L458.68 469.88L458.27 468.15L457.85 466.4L457.42 464.62L456.98 462.83L456.54 461.02L456.11 459.22L455.67 457.43L455.24 455.66L454.81 453.92L454.39 452.19L453.98 450.49L453.57 448.81L453.16 447.16L452.77 445.54L452.38 443.94L451.99 442.38L451.62 440.85L451.25 439.35L450.89 437.88L450.54 436.46L450.2 435.07L449.87 433.72L449.55 432.41L449.24 431.14L448.94 429.92L448.65 428.74L448.37 427.61L448.1 426.52L447.85 425.49L447.6 424.5L447.37 423.57L447.16 422.69L446.95 421.87L446.76 421.1L446.59 420.39L446.43 419.75L446.28 419.16L446.15 418.63L446.03 418.17L445.93 417.78L445.85 417.45L445.78 417.19L445.73 417L445.7 416.88L445.69 416.83L445.58 416.91L445.33 417.23ZM289.24 404.79L288.76 404.88L288.17 405L287.48 405.16L286.68 405.34L285.79 405.55L284.82 405.79L283.77 406.04L282.64 406.32L281.46 406.62L280.21 406.93L278.92 407.26L277.58 407.6L276.21 407.95L274.81 408.31L273.38 408.68L271.95 409.06L270.5 409.44L269.05 409.82L267.61 410.2L266.18 410.58L264.77 410.96L263.39 411.33L262.04 411.7L260.74 412.05L259.48 412.4L258.28 412.73L257.14 413.04L256.07 413.34L255.07 413.63L254.16 413.89L253.34 414.13L252.62 414.35L252 414.54L251.49 414.7L251.1 414.84L250.84 414.94L250.7 415.01L250.7 415.03L250.7 415.08L250.7 415.16L250.72 415.27L250.73 415.4L250.76 415.56L250.79 415.74L250.83 415.95L250.87 416.18L250.92 416.44L250.98 416.72L251.04 417.02L251.1 417.34L251.17 417.68L251.25 418.05L251.33 418.43L251.42 418.83L251.51 419.26L251.6 419.7L251.7 420.16L251.81 420.63L251.92 421.12L252.03 421.63L252.15 422.16L252.27 422.7L252.39 423.25L252.52 423.82L252.65 424.4L252.79 425L252.93 425.6L253.07 426.22L253.22 426.85L253.37 427.5L253.52 428.15L253.67 428.81L253.83 429.48L253.99 430.16L254.15 430.84L254.32 431.54L254.49 432.24L254.65 432.95L254.82 433.67L254.99 434.4L255.16 435.15L255.34 435.9L255.52 436.67L255.7 437.44L255.88 438.22L256.06 439L256.25 439.79L256.43 440.58L256.62 441.38L256.81 442.18L256.99 442.98L257.18 443.78L257.37 444.58L257.55 445.37L257.74 446.17L257.93 446.96L258.11 447.75L258.29 448.53L258.48 449.31L258.66 450.08L258.83 450.84L259.01 451.59L259.18 452.33L259.35 453.07L259.52 453.78L259.68 454.49L259.84 455.18L260 455.86L260.15 456.53L260.3 457.17L260.45 457.8L260.59 458.41L260.72 459.01L260.85 459.58L260.98 460.13L261.1 460.66L261.21 461.16L261.48 462.29L261.73 463.35L261.96 464.36L262.19 465.31L262.4 466.2L262.6 467.05L262.79 467.84L262.96 468.58L263.13 469.27L263.29 469.92L263.44 470.53L263.58 471.09L263.71 471.61L263.84 472.09L263.96 472.53L264.08 472.94L264.19 473.31L264.3 473.66L264.4 473.97L264.5 474.25L264.6 474.51L264.7 474.74L264.79 474.94L264.89 475.13L264.99 475.3L265.09 475.44L265.19 475.57L265.29 475.69L265.39 475.79L265.5 475.89L265.62 475.97L265.74 476.04L265.86 476.11L265.99 476.18L266.13 476.24L266.28 476.3L266.43 476.36L266.6 476.43L266.77 476.5L266.95 476.57L270.62 478.14L274.18 479.65L277.62 481.12L280.94 482.54L284.16 483.91L287.26 485.23L290.25 486.51L293.13 487.73L295.9 488.91L298.57 490.05L301.13 491.14L303.59 492.19L305.95 493.19L308.2 494.15L310.35 495.06L312.41 495.93L314.36 496.76L316.22 497.55L317.99 498.29L319.66 499L321.23 499.67L322.72 500.29L324.11 500.88L325.42 501.43L326.64 501.94L327.77 502.41L328.81 502.84L329.77 503.24L330.65 503.6L331.44 503.93L332.16 504.22L332.79 504.48L333.35 504.7L333.83 504.89L334.24 505.05L334.57 505.17L334.83 505.27L335.01 505.33L335.12 505.36L335.17 505.36L335.16 505.3L335.12 505.17L335.03 504.95L334.91 504.66L334.76 504.28L334.57 503.83L334.35 503.31L334.1 502.72L333.81 502.05L333.49 501.31L333.14 500.51L332.76 499.64L332.35 498.7L331.92 497.7L331.45 496.64L330.96 495.53L330.44 494.35L329.9 493.12L329.33 491.83L328.73 490.49L328.12 489.1L327.48 487.66L326.82 486.17L326.13 484.64L325.43 483.06L324.71 481.43L323.96 479.77L323.2 478.07L322.42 476.33L321.63 474.55L320.82 472.74L319.99 470.89L319.15 469.01L318.29 467.11L317.42 465.17L316.54 463.21L315.64 461.23L314.74 459.22L313.82 457.19L312.9 455.14L311.97 453.08L311.05 451.05L310.15 449.03L309.25 447.04L308.36 445.08L307.49 443.14L306.62 441.23L305.78 439.35L304.94 437.49L304.12 435.68L303.31 433.89L302.52 432.15L301.75 430.44L300.99 428.77L300.26 427.14L299.54 425.56L298.84 424.02L298.16 422.52L297.5 421.08L296.87 419.68L296.26 418.34L295.67 417.05L295.1 415.81L294.56 414.63L294.05 413.5L293.56 412.44L293.1 411.43L292.67 410.49L292.26 409.62L291.89 408.81L291.55 408.07L291.23 407.39L290.95 406.79L290.7 406.26L290.48 405.81L290.3 405.43L290.15 405.13L290.04 404.91L289.96 404.77L289.93 404.71L289.83 404.7L289.6 404.72L289.24 404.79ZM435.11 414.66L435.08 414.66L435.03 414.67L434.96 414.68L434.89 414.7L434.79 414.73L434.68 414.76L434.56 414.79L434.43 414.83L434.28 414.88L434.12 414.93L433.94 414.98L433.76 415.04L433.56 415.1L433.35 415.17L433.13 415.24L432.9 415.32L432.66 415.4L432.41 415.48L432.15 415.57L431.88 415.66L431.6 415.76L431.32 415.86L431.02 415.96L430.72 416.06L430.4 416.17L430.08 416.28L429.76 416.4L429.43 416.51L429.09 416.63L428.74 416.76L428.39 416.88L428.03 417.01L427.67 417.13L427.31 417.27L426.93 417.4L426.56 417.53L426.18 417.67L425.8 417.81L425.42 417.95L425.03 418.09L424.61 418.24L424.15 418.41L423.65 418.59L423.09 418.79L422.5 419L421.86 419.23L421.18 419.47L420.46 419.73L419.7 420L418.91 420.28L418.08 420.58L417.21 420.89L416.31 421.2L415.38 421.53L414.42 421.87L413.43 422.23L412.41 422.59L411.37 422.95L410.3 423.33L409.21 423.72L408.09 424.11L406.96 424.51L405.8 424.92L404.62 425.34L403.43 425.76L402.23 426.18L401 426.61L399.77 427.05L398.52 427.49L397.26 427.93L396 428.37L394.72 428.82L393.44 429.27L392.16 429.72L390.87 430.18L389.57 430.63L388.28 431.09L386.99 431.54L385.69 431.99L384.41 432.45L383.12 432.9L381.82 433.35L380.53 433.81L379.23 434.26L377.93 434.72L376.64 435.17L375.35 435.63L374.06 436.08L372.77 436.53L371.5 436.98L370.23 437.42L368.97 437.86L367.72 438.3L366.49 438.74L365.27 439.16L364.06 439.59L362.87 440L361.7 440.42L360.54 440.82L359.41 441.22L358.3 441.61L357.21 441.99L356.15 442.36L355.11 442.73L354.1 443.08L353.11 443.43L352.16 443.76L351.24 444.09L350.35 444.4L349.49 444.7L348.67 444.99L347.89 445.26L347.14 445.52L346.43 445.77L345.76 446.01L345.14 446.22L344.56 446.43L344.02 446.62L343.53 446.79L343.08 446.94L342.67 447.09L342.25 447.24L341.84 447.38L341.43 447.53L341.03 447.67L340.63 447.81L340.24 447.95L339.85 448.09L339.47 448.23L339.09 448.37L338.73 448.5L338.36 448.63L338.01 448.76L337.66 448.89L337.32 449.02L336.99 449.14L336.67 449.26L336.36 449.38L336.05 449.49L335.76 449.61L335.47 449.71L335.2 449.82L334.93 449.92L334.68 450.02L334.44 450.12L334.2 450.21L333.98 450.29L333.78 450.38L333.58 450.46L333.4 450.53L333.23 450.6L333.08 450.66L332.94 450.73L332.81 450.78L332.7 450.83L332.6 450.88L332.52 450.92L332.45 450.95L332.4 450.98L332.37 451.01L332.35 451.03L332.36 451.05L332.37 451.08L332.4 451.12L332.44 451.16L332.5 451.21L332.57 451.26L332.65 451.31L332.74 451.38L332.85 451.44L332.97 451.52L333.1 451.59L333.24 451.67L333.39 451.76L333.56 451.85L333.73 451.94L333.92 452.04L334.11 452.14L334.32 452.25L334.53 452.35L334.75 452.47L334.99 452.58L335.23 452.7L335.48 452.82L335.74 452.95L336 453.07L336.28 453.2L336.56 453.34L336.85 453.47L337.14 453.61L337.45 453.75L337.76 453.89L338.07 454.03L338.39 454.17L338.72 454.32L339.05 454.47L339.39 454.62L339.73 454.77L340.07 454.92L340.42 455.07L342.18 455.8L343.91 456.53L345.62 457.25L347.31 457.96L348.97 458.66L350.61 459.34L352.23 460.02L353.82 460.69L355.38 461.34L356.92 461.99L358.43 462.62L359.91 463.24L361.37 463.85L362.79 464.45L364.19 465.03L365.56 465.6L366.89 466.16L368.19 466.7L369.47 467.24L370.7 467.75L371.91 468.26L373.08 468.75L374.22 469.22L375.32 469.68L376.39 470.13L377.42 470.56L378.41 470.97L379.37 471.37L380.29 471.75L381.17 472.12L382.01 472.47L382.81 472.8L383.57 473.11L384.29 473.41L384.96 473.69L385.6 473.95L386.19 474.2L386.74 474.42L387.24 474.63L387.7 474.82L394.14 477.55L413.68 448L414.48 446.78L415.28 445.57L416.07 444.38L416.85 443.19L417.62 442.02L418.38 440.86L419.14 439.72L419.89 438.59L420.62 437.47L421.34 436.37L422.05 435.29L422.75 434.23L423.44 433.19L424.11 432.17L424.77 431.18L425.41 430.2L426.03 429.26L426.64 428.33L427.23 427.43L427.8 426.56L428.36 425.72L428.89 424.91L429.41 424.13L429.9 423.38L430.37 422.66L430.82 421.97L431.25 421.32L431.65 420.71L432.03 420.13L432.38 419.59L432.71 419.09L433.02 418.63L433.29 418.2L433.54 417.82L433.76 417.49L433.95 417.19L434.11 416.95L434.24 416.74L434.34 416.59L434.41 416.48L434.46 416.4L434.51 416.32L434.56 416.25L434.61 416.17L434.66 416.1L434.7 416.02L434.74 415.95L434.78 415.88L434.82 415.81L434.86 415.74L434.89 415.67L434.93 415.61L434.96 415.54L434.99 415.48L435.02 415.42L435.04 415.36L435.07 415.31L435.09 415.25L435.11 415.2L435.13 415.15L435.15 415.1L435.16 415.05L435.18 415.01L435.19 414.97L435.2 414.93L435.21 414.89L435.21 414.85L435.22 414.82L435.22 414.79L435.22 414.76L435.22 414.74L435.21 414.72L435.21 414.7L435.2 414.68L435.19 414.67L435.18 414.66L435.17 414.66L435.15 414.65L435.13 414.65L435.11 414.66ZM266.89 355.88L266.69 355.94L266.41 356.03L266.06 356.14L265.65 356.27L265.17 356.43L264.63 356.61L264.03 356.81L263.36 357.03L262.64 357.27L261.85 357.54L261.01 357.82L260.12 358.12L259.17 358.44L258.17 358.78L257.12 359.14L256.02 359.51L254.87 359.9L253.67 360.31L252.43 360.73L251.15 361.17L249.83 361.62L248.46 362.09L247.06 362.57L245.62 363.06L244.14 363.57L242.63 364.09L241.08 364.62L239.51 365.16L237.9 365.72L236.27 366.28L234.6 366.85L232.92 367.43L231.21 368.02L229.47 368.62L227.72 369.23L225.94 369.85L224.15 370.47L222.34 371.09L178.22 386.29L172.05 412.21L171.8 413.27L171.54 414.33L171.29 415.39L171.03 416.44L170.78 417.48L170.53 418.52L170.29 419.54L170.05 420.56L169.8 421.57L169.57 422.56L169.33 423.54L169.1 424.51L168.87 425.46L168.65 426.4L168.43 427.32L168.22 428.22L168.01 429.11L167.8 429.97L167.6 430.82L167.4 431.64L167.21 432.44L167.03 433.22L166.85 433.97L166.68 434.7L166.51 435.4L166.35 436.07L166.2 436.71L166.05 437.33L165.91 437.91L165.78 438.46L165.65 438.98L165.54 439.47L165.43 439.92L165.33 440.34L165.24 440.72L165.15 441.06L165.08 441.37L165.01 441.63L164.96 441.86L164.91 442.04L164 446.1L248.53 446.1L248.53 444.49L248.53 444.41L248.52 444.3L248.51 444.17L248.49 444L248.46 443.82L248.43 443.6L248.4 443.37L248.36 443.11L248.31 442.82L248.26 442.52L248.21 442.19L248.15 441.84L248.09 441.47L248.02 441.09L247.95 440.68L247.87 440.25L247.79 439.8L247.71 439.34L247.62 438.86L247.53 438.36L247.43 437.85L247.33 437.33L247.23 436.78L247.13 436.23L247.02 435.66L246.91 435.08L246.79 434.48L246.68 433.88L246.56 433.26L246.44 432.63L246.31 432L246.18 431.35L246.06 430.7L245.92 430.04L245.79 429.37L245.66 428.69L245.52 428.01L245.38 427.32L245.24 426.63L245.1 425.93L244.89 424.84L244.68 423.79L244.48 422.79L244.3 421.83L244.12 420.92L243.95 420.05L243.79 419.23L243.64 418.44L243.5 417.69L243.37 416.99L243.25 416.32L243.13 415.69L243.03 415.09L242.93 414.53L242.84 414L242.76 413.5L242.69 413.04L242.62 412.61L242.56 412.2L242.51 411.83L242.47 411.48L242.43 411.16L242.4 410.86L242.38 410.59L242.36 410.35L242.35 410.12L242.35 409.91L242.36 409.73L242.37 409.56L242.38 409.42L242.41 409.29L242.43 409.17L242.47 409.07L242.51 408.99L242.55 408.91L242.61 408.85L242.66 408.8L242.72 408.76L242.79 408.73L242.86 408.7L242.98 408.67L243.21 408.6L243.54 408.5L243.97 408.38L244.5 408.23L245.12 408.05L245.82 407.85L246.61 407.62L247.47 407.38L248.4 407.12L249.4 406.83L250.45 406.53L251.57 406.21L252.74 405.88L253.96 405.54L255.21 405.18L256.51 404.81L257.84 404.44L259.2 404.05L260.58 403.66L261.98 403.27L263.4 402.86L264.82 402.46L266.25 402.06L267.68 401.65L269.1 401.25L270.52 400.85L271.91 400.46L273.3 400.07L274.65 399.68L275.98 399.31L277.28 398.94L278.53 398.59L279.75 398.24L280.91 397.91L282.03 397.6L283.08 397.3L284.08 397.02L285.01 396.76L285.86 396.52L285.92 396.51L285.97 396.49L286.02 396.48L286.07 396.47L286.12 396.45L286.16 396.44L286.21 396.42L286.25 396.4L286.3 396.39L286.34 396.37L286.38 396.35L286.43 396.33L286.46 396.31L286.5 396.29L286.54 396.26L286.58 396.24L286.61 396.22L286.64 396.2L286.67 396.17L286.7 396.15L286.73 396.13L286.76 396.1L286.78 396.08L286.81 396.05L286.83 396.03L286.85 396L286.86 395.98L286.88 395.96L286.89 395.93L286.91 395.91L286.92 395.88L286.93 395.86L286.93 395.83L286.94 395.81L286.94 395.79L286.94 395.76L286.93 395.74L286.93 395.72L286.92 395.7L286.91 395.68L286.9 395.64L286.86 395.57L286.81 395.47L286.75 395.34L286.67 395.17L286.58 394.98L286.47 394.76L286.35 394.51L286.22 394.23L286.07 393.92L285.91 393.59L285.74 393.23L285.56 392.85L285.37 392.44L285.16 392.01L284.94 391.56L284.72 391.08L284.48 390.58L284.23 390.06L283.97 389.52L283.7 388.96L283.43 388.38L283.14 387.79L282.85 387.17L282.55 386.54L281.6 384.54L281.26 383.85L280.93 383.14L280.58 382.42L280.23 381.68L279.87 380.94L279.51 380.18L279.15 379.41L278.77 378.63L278.4 377.85L278.02 377.05L277.64 376.25L277.25 375.44L276.86 374.63L276.48 373.83L276.09 373.05L275.72 372.27L275.34 371.5L274.97 370.74L274.6 369.99L274.24 369.26L273.89 368.53L273.53 367.82L273.19 367.13L272.85 366.44L272.52 365.78L272.19 365.13L271.87 364.49L271.56 363.87L271.25 363.27L270.95 362.69L270.67 362.13L270.38 361.59L270.11 361.06L269.85 360.56L269.6 360.08L269.36 359.62L269.12 359.19L268.9 358.77L268.69 358.39L268.49 358.02L268.3 357.69L268.13 357.37L267.96 357.09L267.81 356.83L267.67 356.6L267.55 356.4L267.44 356.23L267.34 356.08L267.26 355.97L267.19 355.89L267.13 355.84L267.09 355.83L267.03 355.84L266.89 355.88ZM187.56 156.24L187.58 156.28L187.59 156.32L187.6 156.36L187.61 156.42L187.66 156.55L187.74 156.75L187.87 157.06L188.05 157.48L188.29 158.02L188.6 158.71L188.97 159.55L189.43 160.57L189.98 161.77L190.62 163.18L191.36 164.8L192.2 166.65L193.17 168.76L194.25 171.12L195.46 173.76L196.81 176.7L198.3 179.94L199.94 183.51L201.73 187.41L203.69 191.67L205.82 196.29L208.12 201.3L210.61 206.71L213.29 212.52L216.17 218.77L219.25 225.46L222.54 232.61L226.06 240.23L229.79 248.34L233.76 256.95L237.97 266.08L242.43 275.75L247.14 285.96L252.11 296.74L257.34 308.1L262.86 320.05L268.65 332.6L274.73 345.79L281.1 359.61L282.03 361.64L282.97 363.67L283.91 365.72L284.85 367.77L285.8 369.82L286.74 371.88L287.69 373.93L288.63 375.98L289.57 378.02L290.51 380.06L291.44 382.08L292.36 384.09L293.28 386.09L294.2 388.07L295.1 390.04L295.99 391.98L296.88 393.89L297.75 395.79L298.61 397.65L299.45 399.49L300.28 401.29L301.1 403.06L301.89 404.79L302.67 406.48L303.43 408.13L304.18 409.74L304.9 411.3L305.6 412.82L306.27 414.28L306.92 415.7L307.55 417.06L308.15 418.36L308.73 419.61L309.28 420.79L309.79 421.91L310.28 422.97L310.74 423.95L311.17 424.87L311.56 425.72L311.92 426.49L312.25 427.23L312.59 427.95L312.92 428.67L313.24 429.38L313.57 430.09L313.89 430.78L314.21 431.47L314.52 432.15L314.83 432.81L315.14 433.47L315.44 434.11L315.73 434.75L316.02 435.36L316.31 435.97L316.58 436.56L316.85 437.14L317.12 437.7L317.38 438.24L317.63 438.77L317.87 439.28L318.11 439.78L318.33 440.25L318.55 440.71L318.76 441.15L318.96 441.56L319.15 441.96L319.33 442.34L319.5 442.69L319.67 443.02L319.82 443.33L319.96 443.61L320.08 443.87L320.2 444.1L320.31 444.31L320.4 444.49L320.48 444.65L320.55 444.77L320.6 444.87L320.64 444.94L320.67 444.98L320.73 445.03L320.8 445.06L320.88 445.09L320.98 445.11L321.11 445.12L321.25 445.12L321.41 445.11L321.6 445.09L321.8 445.06L322.04 445.01L322.29 444.96L322.58 444.89L322.89 444.82L323.24 444.73L323.61 444.63L324.01 444.51L324.45 444.38L324.92 444.24L325.43 444.08L325.97 443.91L326.55 443.72L327.17 443.52L327.82 443.3L328.52 443.06L329.26 442.81L330.05 442.54L330.88 442.26L331.75 441.95L332.67 441.63L333.64 441.29L334.66 440.93L335.73 440.55L336.85 440.15L338.02 439.74L339.25 439.3L340.53 438.84L341.87 438.36L343.27 437.86L344.72 437.33L346.24 436.79L347.89 436.19L349.56 435.59L351.23 434.99L352.92 434.38L354.61 433.78L356.32 433.16L358.03 432.55L359.75 431.93L361.48 431.3L363.22 430.68L364.96 430.05L366.71 429.42L368.47 428.79L370.23 428.16L372 427.52L373.78 426.89L375.56 426.25L377.34 425.61L379.13 424.97L380.92 424.32L382.72 423.68L384.52 423.03L386.32 422.39L388.12 421.74L389.93 421.09L391.73 420.45L393.54 419.8L395.35 419.15L397.16 418.51L398.97 417.86L400.78 417.21L402.58 416.57L404.39 415.92L406.2 415.28L408 414.63L409.8 413.99L411.6 413.35L413.39 412.71L415.19 412.07L416.97 411.44L417.93 411.1L418.87 410.76L419.8 410.42L420.73 410.09L421.64 409.76L422.54 409.44L423.43 409.12L424.3 408.8L425.16 408.49L426.01 408.19L426.84 407.89L427.65 407.59L428.45 407.3L429.23 407.02L429.99 406.74L430.73 406.47L431.45 406.2L432.15 405.95L432.83 405.7L433.48 405.46L434.12 405.22L434.72 405L435.31 404.78L435.86 404.57L436.39 404.37L436.9 404.18L437.37 404L437.82 403.84L438.24 403.68L438.62 403.53L438.98 403.39L439.3 403.26L439.59 403.15L439.85 403.04L440.07 402.95L440.26 402.87L440.41 402.8L440.53 402.75L440.61 402.71L440.65 402.68L440.65 402.61L440.63 402.46L440.57 402.22L440.48 401.89L440.35 401.47L440.2 400.98L440.01 400.4L439.79 399.75L439.55 399.02L439.27 398.21L438.97 397.33L438.64 396.38L438.28 395.36L437.89 394.27L437.48 393.12L437.05 391.9L436.59 390.62L436.1 389.27L435.6 387.87L435.07 386.41L434.52 384.9L433.95 383.33L433.36 381.71L432.74 380.04L432.11 378.33L431.46 376.56L430.8 374.75L430.11 372.9L429.41 371.01L428.7 369.08L427.97 367.11L427.22 365.1L426.46 363.06L425.69 360.99L424.91 358.89L424.11 356.76L423.31 354.6L422.49 352.42L421.66 350.21L420.83 347.98L419.98 345.74L419.14 343.48L418.29 341.22L417.43 338.96L416.58 336.69L415.73 334.42L414.87 332.15L414.02 329.88L413.17 327.63L412.33 325.38L411.48 323.14L410.65 320.92L409.82 318.71L408.99 316.52L408.18 314.36L407.37 312.21L406.57 310.1L405.79 308.01L405.01 305.95L404.25 303.93L403.5 301.94L402.77 299.99L402.05 298.08L401.35 296.21L400.67 294.39L400 292.62L399.35 290.9L398.72 289.22L398.12 287.61L397.53 286.05L396.97 284.55L396.43 283.12L395.92 281.75L395.43 280.44L394.97 279.21L394.53 278.04L394.13 276.96L393.75 275.94L393.41 275.01L393.09 274.16L385.67 254.48L287.26 205.53L279.62 201.72L272.38 198.11L265.52 194.7L259.05 191.47L252.94 188.43L247.19 185.57L241.79 182.88L236.72 180.36L231.98 178L227.55 175.79L223.42 173.74L219.59 171.83L216.04 170.07L212.76 168.44L209.75 166.94L206.98 165.57L204.45 164.31L202.15 163.17L200.07 162.14L198.19 161.22L196.51 160.39L195.02 159.66L193.7 159.01L192.55 158.45L191.55 157.96L190.69 157.55L189.96 157.2L189.35 156.91L188.86 156.69L188.46 156.51L188.15 156.37L187.92 156.28L187.76 156.22L187.65 156.2L187.59 156.19L187.57 156.21L187.56 156.24ZM98.81 324.59L98.55 324.77L98.21 325.02L97.79 325.33L97.3 325.7L96.75 326.13L96.13 326.61L95.46 327.14L94.73 327.72L93.96 328.33L93.14 328.99L92.28 329.68L91.38 330.4L90.45 331.16L89.5 331.93L88.53 332.72L87.53 333.53L86.53 334.36L85.51 335.19L84.49 336.03L83.47 336.87L82.46 337.71L81.45 338.54L80.46 339.37L79.49 340.18L78.54 340.98L77.61 341.75L76.72 342.51L75.86 343.23L75.04 343.93L74.27 344.59L73.54 345.21L72.87 345.79L72.26 346.32L71.71 346.81L71.22 347.24L70.81 347.62L70.47 347.94L70.22 348.19L70.2 348.22L70.19 348.25L70.18 348.28L70.19 348.33L70.2 348.38L70.21 348.44L70.23 348.5L70.26 348.56L70.29 348.64L70.33 348.72L70.37 348.8L70.42 348.89L70.48 348.98L70.54 349.08L70.6 349.19L70.67 349.29L70.75 349.41L70.82 349.52L70.91 349.64L71 349.77L71.09 349.9L71.19 350.03L71.29 350.16L71.39 350.3L71.5 350.44L71.61 350.58L71.73 350.73L71.85 350.88L71.97 351.03L72.1 351.19L72.23 351.34L72.36 351.5L72.5 351.66L72.63 351.82L72.77 351.98L72.92 352.15L73.06 352.31L73.21 352.48L73.36 352.65L73.51 352.81L73.7 353.02L73.95 353.29L74.26 353.62L74.63 354.02L75.06 354.48L75.55 355L76.09 355.59L76.69 356.23L77.33 356.92L78.03 357.67L78.78 358.48L79.58 359.34L80.42 360.25L81.31 361.2L82.24 362.21L83.22 363.26L84.23 364.36L85.29 365.5L86.38 366.68L87.52 367.9L88.68 369.16L89.89 370.46L91.12 371.79L92.39 373.16L93.69 374.56L95.01 375.99L96.37 377.45L97.74 378.94L99.15 380.46L100.57 382L102.02 383.56L103.49 385.15L104.98 386.76L106.49 388.39L108.01 390.03L109.54 391.7L111.09 393.37L112.66 395.06L114.23 396.77L115.81 398.48L117.4 400.18L118.97 401.87L120.52 403.55L122.05 405.2L123.57 406.83L125.07 408.45L126.54 410.04L127.99 411.61L129.42 413.15L130.82 414.66L132.2 416.15L133.54 417.61L134.86 419.03L136.15 420.43L137.41 421.79L138.63 423.11L139.82 424.4L140.97 425.65L142.09 426.86L143.17 428.03L144.21 429.16L145.21 430.25L146.17 431.29L147.08 432.28L147.95 433.23L148.78 434.13L149.55 434.98L150.28 435.77L150.96 436.52L151.59 437.2L152.17 437.84L152.7 438.41L153.17 438.93L153.58 439.38L153.94 439.78L154.24 440.11L154.47 440.38L154.65 440.58L154.77 440.72L154.82 440.78L154.84 440.81L154.87 440.84L154.89 440.87L154.91 440.9L154.93 440.93L154.95 440.95L154.98 440.98L155 441L155.02 441.02L155.04 441.04L155.07 441.06L155.09 441.08L155.11 441.1L155.14 441.12L155.16 441.13L155.18 441.15L155.21 441.16L155.23 441.17L155.25 441.18L155.28 441.19L155.3 441.2L155.33 441.21L155.35 441.21L155.37 441.22L155.4 441.22L155.42 441.23L155.44 441.23L155.47 441.23L155.49 441.23L155.51 441.22L155.54 441.22L155.56 441.22L155.58 441.21L155.6 441.2L155.63 441.19L155.65 441.18L155.67 441.17L155.69 441.16L155.71 441.15L155.73 441.13L155.8 440.98L155.92 440.64L156.09 440.11L156.29 439.41L156.53 438.54L156.81 437.52L157.13 436.35L157.47 435.05L157.85 433.63L158.25 432.1L158.68 430.46L159.12 428.72L159.59 426.91L160.07 425.02L160.56 423.07L161.07 421.07L161.59 419.03L162.11 416.96L162.63 414.86L163.16 412.76L163.68 410.65L164.2 408.55L164.71 406.48L165.22 404.43L165.71 402.42L166.19 400.47L166.65 398.57L167.09 396.75L167.51 395.01L167.91 393.35L168.28 391.8L168.61 390.37L168.92 389.05L169.19 387.87L169.43 386.83L169.62 385.94L169.77 385.21L169.88 384.66L169.94 384.29L169.95 384.12L169.91 384.06L169.81 383.95L169.66 383.79L169.45 383.59L169.19 383.34L168.87 383.05L168.51 382.72L168.09 382.34L167.62 381.92L167.11 381.46L166.54 380.97L165.94 380.43L165.28 379.86L164.58 379.25L163.84 378.6L163.06 377.92L162.24 377.21L161.38 376.47L160.48 375.69L159.54 374.88L158.57 374.05L157.56 373.19L156.52 372.3L155.45 371.38L154.34 370.44L153.21 369.47L152.05 368.48L150.85 367.47L149.64 366.43L148.39 365.38L147.12 364.3L145.83 363.21L144.52 362.1L143.18 360.98L141.83 359.84L140.45 358.68L139.06 357.51L137.65 356.33L136.23 355.14L134.79 353.93L133.36 352.73L131.94 351.53L130.53 350.35L129.14 349.18L127.76 348.03L126.41 346.89L125.07 345.77L123.75 344.66L122.45 343.58L121.17 342.51L119.92 341.47L118.69 340.44L117.49 339.44L116.32 338.47L115.17 337.51L114.05 336.59L112.96 335.69L111.91 334.81L110.88 333.97L109.89 333.15L108.94 332.37L108.02 331.61L107.14 330.89L106.3 330.2L105.5 329.54L104.74 328.92L104.02 328.34L103.35 327.79L102.72 327.28L102.13 326.81L101.6 326.38L101.11 325.99L100.67 325.64L100.28 325.33L99.94 325.07L99.66 324.85L99.43 324.68L99.25 324.56L99.13 324.48L99.07 324.45L98.99 324.48L98.81 324.59ZM438.48 366.02L438.2 366.02L437.95 366.03L437.74 366.04L437.56 366.06L437.43 366.08L437.33 366.1L437.28 366.12L437.27 366.13L437.27 366.15L437.26 366.17L437.26 366.19L437.25 366.22L437.25 366.25L437.25 366.28L437.26 366.32L437.26 366.35L437.27 366.4L437.27 366.44L437.28 366.49L437.29 366.54L437.3 366.59L437.31 366.64L437.33 366.7L437.34 366.76L437.36 366.82L437.38 366.89L437.4 366.95L437.42 367.02L437.44 367.09L437.46 367.16L437.49 367.24L437.51 367.31L437.54 367.39L437.56 367.47L437.59 367.54L437.62 367.63L437.65 367.71L437.68 367.79L437.71 367.87L437.74 367.96L437.77 368.04L437.81 368.13L437.84 368.22L437.88 368.31L437.91 368.39L437.95 368.48L437.98 368.57L438.03 368.68L438.08 368.82L438.14 368.98L438.21 369.17L438.29 369.39L438.38 369.63L438.48 369.89L438.59 370.18L438.7 370.5L438.83 370.83L438.96 371.19L439.1 371.57L439.24 371.97L439.4 372.39L439.56 372.83L439.73 373.29L439.9 373.76L440.08 374.26L440.27 374.77L440.46 375.3L440.66 375.84L440.86 376.4L441.07 376.97L441.29 377.56L441.51 378.16L441.73 378.77L441.96 379.4L442.19 380.03L442.42 380.68L442.66 381.34L442.91 382L443.15 382.68L443.4 383.36L443.65 384.05L443.9 384.75L444.16 385.46L444.42 386.17L444.68 386.88L444.94 387.6L445.2 388.32L445.59 389.39L445.96 390.43L446.32 391.44L446.68 392.42L447.02 393.37L447.35 394.31L447.67 395.22L447.98 396.11L448.28 396.98L448.57 397.84L448.85 398.68L449.13 399.5L449.4 400.31L449.66 401.11L449.91 401.9L450.16 402.68L450.41 403.46L450.65 404.23L450.88 405L451.11 405.76L451.33 406.53L451.56 407.29L451.77 408.06L451.99 408.83L452.21 409.61L452.42 410.39L452.63 411.19L452.84 411.99L453.05 412.81L453.26 413.64L453.48 414.48L453.69 415.34L453.91 416.22L454.12 417.11L454.34 418.03L454.56 418.97L454.79 419.94L455.02 420.93L455.25 421.95L455.49 422.99L455.65 423.7L455.81 424.4L455.96 425.09L456.11 425.78L456.26 426.45L456.41 427.12L456.56 427.78L456.7 428.43L456.84 429.07L456.98 429.7L457.12 430.32L457.25 430.92L457.38 431.51L457.51 432.09L457.64 432.66L457.76 433.21L457.88 433.74L457.99 434.26L458.1 434.77L458.21 435.26L458.31 435.73L458.41 436.18L458.5 436.61L458.6 437.03L458.68 437.43L458.76 437.8L458.84 438.16L458.91 438.49L458.98 438.8L459.04 439.09L459.1 439.36L459.15 439.61L459.19 439.83L459.23 440.02L459.27 440.19L459.29 440.33L459.32 440.45L459.33 440.54L459.34 440.61L459.35 440.64L459.35 440.67L459.35 440.69L459.35 440.72L459.36 440.74L459.36 440.77L459.37 440.79L459.38 440.81L459.39 440.83L459.4 440.86L459.41 440.88L459.42 440.9L459.43 440.92L459.45 440.94L459.47 440.95L459.48 440.97L459.5 440.99L459.52 441.01L459.54 441.02L459.56 441.04L459.58 441.05L459.61 441.07L459.63 441.08L459.65 441.09L459.68 441.11L459.71 441.12L459.73 441.13L459.76 441.14L459.79 441.15L459.82 441.16L459.85 441.16L459.88 441.17L459.91 441.18L459.94 441.18L459.98 441.19L460.01 441.19L460.04 441.2L460.08 441.2L460.11 441.2L460.15 441.2L460.19 441.2L460.34 441.17L460.65 441.09L461.11 440.95L461.71 440.76L462.44 440.52L463.3 440.24L464.28 439.91L465.37 439.55L466.56 439.15L467.84 438.72L469.2 438.25L470.64 437.76L472.15 437.24L473.72 436.71L475.34 436.15L477 435.58L478.69 434.99L480.42 434.39L482.15 433.79L483.9 433.18L485.65 432.57L487.4 431.96L489.12 431.36L490.83 430.76L492.5 430.18L494.13 429.6L495.71 429.04L497.24 428.5L498.7 427.99L500.08 427.49L501.39 427.03L502.61 426.59L503.72 426.19L504.73 425.82L505.63 425.49L506.4 425.2L507.04 424.96L507.54 424.77L507.9 424.62L508.09 424.53L508.1 424.37L507.91 424L507.53 423.46L506.98 422.73L506.26 421.84L505.38 420.79L504.35 419.6L503.18 418.27L501.89 416.82L500.48 415.25L498.96 413.58L497.35 411.82L495.64 409.97L493.86 408.05L492.01 406.07L490.1 404.04L488.14 401.96L486.15 399.86L484.12 397.73L482.08 395.6L480.03 393.46L477.98 391.34L475.95 389.24L473.93 387.17L471.95 385.14L470.01 383.16L468.12 381.25L466.29 379.41L464.53 377.65L462.86 375.99L461.27 374.43L459.79 372.99L458.42 371.67L457.16 370.48L456.04 369.45L455.07 368.57L454.24 367.86L453.57 367.32L453.08 366.97L452.76 366.82L452.56 366.78L452.33 366.75L452.06 366.71L451.76 366.67L451.43 366.64L451.07 366.6L450.68 366.56L450.27 366.53L449.84 366.49L449.39 366.46L448.92 366.42L448.44 366.39L447.94 366.36L447.43 366.32L446.91 366.29L446.39 366.26L445.86 366.23L445.32 366.21L444.79 366.18L444.26 366.16L443.73 366.13L443.21 366.11L442.7 366.09L442.2 366.08L441.71 366.06L441.23 366.05L440.77 366.03L440.33 366.03L439.91 366.02L439.52 366.01L439.14 366.01L438.8 366.01L438.48 366.02ZM532.33 212.27L532.13 212.3L531.87 212.36L531.55 212.43L531.18 212.53L530.76 212.64L530.3 212.76L529.79 212.9L529.24 213.05L528.66 213.22L528.04 213.39L527.4 213.58L526.73 213.77L526.04 213.98L525.33 214.19L524.6 214.41L523.86 214.63L523.12 214.85L522.36 215.08L521.61 215.31L520.86 215.54L520.11 215.78L519.37 216.01L518.64 216.23L517.93 216.46L517.24 216.68L516.57 216.89L515.92 217.1L515.3 217.3L514.72 217.49L514.17 217.67L513.66 217.84L513.19 218L512.77 218.15L512.39 218.28L512.07 218.39L511.81 218.5L511.6 218.58L511.46 218.65L511.38 218.69L511.27 218.98L510.98 219.78L510.54 221.06L509.94 222.79L509.19 224.96L508.31 227.52L507.31 230.46L506.19 233.75L504.96 237.36L503.63 241.26L502.21 245.43L500.71 249.84L499.14 254.47L497.51 259.29L495.82 264.27L494.09 269.38L492.32 274.6L490.53 279.9L488.72 285.26L486.9 290.65L485.08 296.03L483.27 301.4L481.48 306.71L479.71 311.94L477.98 317.06L476.3 322.06L474.67 326.89L473.11 331.54L471.62 335.98L470.21 340.18L468.89 344.11L467.66 347.76L466.55 351.08L465.56 354.06L464.69 356.66L463.96 358.87L463.37 360.65L462.94 361.98L462.67 362.83L462.57 363.18L462.65 363.36L462.93 363.73L463.38 364.28L464 365L464.77 365.88L465.7 366.91L466.76 368.08L467.95 369.38L469.26 370.8L470.68 372.32L472.2 373.95L473.81 375.67L475.5 377.46L477.25 379.33L479.07 381.25L480.94 383.22L482.85 385.22L484.79 387.26L486.75 389.31L488.72 391.37L490.69 393.43L492.66 395.47L494.6 397.49L496.52 399.47L498.4 401.41L500.23 403.3L502.01 405.12L503.72 406.87L505.35 408.53L506.9 410.1L508.35 411.56L509.69 412.91L510.92 414.13L512.02 415.22L512.99 416.15L513.81 416.94L514.47 417.55L514.98 417.99L515.3 418.24L515.45 418.3L515.47 418.26L515.51 418.19L515.57 418.09L515.63 417.96L515.71 417.81L515.8 417.62L515.91 417.42L516.02 417.18L516.14 416.92L516.28 416.64L516.42 416.33L516.58 416L516.75 415.65L516.92 415.27L517.11 414.88L517.3 414.46L517.51 414.02L517.72 413.56L517.94 413.09L518.17 412.59L518.4 412.08L518.65 411.55L518.9 411L519.16 410.44L519.42 409.86L519.69 409.27L519.97 408.66L520.25 408.04L520.54 407.4L520.83 406.76L521.13 406.1L521.43 405.43L521.74 404.75L522.05 404.06L522.37 403.36L522.69 402.65L523.01 401.93L523.33 401.21L523.66 400.48L523.99 399.74L532.04 381.74L532.47 311.14L532.48 308.23L532.5 305.33L532.52 302.43L532.53 299.55L532.55 296.68L532.57 293.82L532.59 290.99L532.61 288.17L532.63 285.39L532.66 282.62L532.68 279.89L532.7 277.19L532.72 274.53L532.74 271.91L532.77 269.32L532.79 266.78L532.81 264.29L532.84 261.85L532.86 259.46L532.89 257.13L532.91 254.85L532.93 252.63L532.96 250.48L532.98 248.4L533 246.38L533.03 244.43L533.05 242.56L533.07 240.77L533.09 239.06L533.12 237.43L533.14 235.89L533.16 234.43L533.18 233.07L533.2 231.8L533.22 230.63L533.24 229.56L533.25 228.59L533.27 227.73L533.29 226.97L533.31 226.33L533.34 225.34L533.36 224.39L533.39 223.5L533.42 222.65L533.44 221.84L533.46 221.07L533.48 220.35L533.49 219.67L533.51 219.02L533.52 218.41L533.53 217.85L533.53 217.31L533.54 216.81L533.54 216.35L533.54 215.91L533.53 215.51L533.53 215.14L533.52 214.8L533.5 214.48L533.49 214.19L533.47 213.93L533.45 213.69L533.42 213.47L533.4 213.28L533.37 213.11L533.33 212.96L533.29 212.82L533.25 212.7L533.21 212.6L533.16 212.52L533.11 212.45L533.05 212.39L532.99 212.34L532.93 212.31L532.86 212.28L532.79 212.26L532.71 212.25L532.64 212.25L532.55 212.25L532.47 212.25L532.33 212.27ZM53.4 246.72L53.38 246.73L53.36 246.75L53.34 246.77L53.33 246.8L53.31 246.84L53.3 246.87L53.29 246.92L53.28 246.96L53.27 247.02L53.26 247.08L53.25 247.14L53.25 247.21L53.25 247.28L53.25 247.36L53.24 247.44L53.25 247.53L53.25 247.62L53.25 247.72L53.26 247.82L53.27 247.93L53.27 248.04L53.28 248.16L53.29 248.29L53.31 248.42L53.32 248.55L53.34 248.69L53.35 248.83L53.37 248.98L53.39 249.14L53.41 249.3L53.48 249.76L53.58 250.4L53.7 251.2L53.84 252.16L54.01 253.27L54.19 254.52L54.4 255.9L54.63 257.41L54.87 259.03L55.13 260.77L55.4 262.61L55.68 264.53L55.98 266.55L56.29 268.64L56.61 270.8L56.94 273.02L57.28 275.29L57.62 277.61L57.97 279.96L58.32 282.34L58.67 284.74L59.03 287.15L59.39 289.57L59.74 291.99L60.1 294.39L60.45 296.77L60.79 299.12L61.13 301.44L61.47 303.71L61.79 305.93L62.11 308.09L62.41 310.18L62.71 312.2L62.99 314.12L63.25 315.96L63.5 317.7L63.74 319.32L63.96 320.83L64.16 322.22L64.33 323.47L64.42 324.05L64.51 324.64L64.6 325.21L64.68 325.78L64.77 326.34L64.85 326.9L64.93 327.45L65.01 327.99L65.09 328.52L65.17 329.05L65.24 329.56L65.31 330.07L65.38 330.56L65.45 331.05L65.52 331.52L65.59 331.98L65.65 332.43L65.71 332.87L65.77 333.29L65.83 333.7L65.89 334.1L65.94 334.48L65.99 334.85L66.04 335.2L66.08 335.53L66.13 335.85L66.17 336.15L66.21 336.44L66.24 336.7L66.27 336.95L66.3 337.18L66.33 337.39L66.36 337.58L66.38 337.75L66.39 337.9L66.41 338.03L66.42 338.13L66.43 338.22L66.43 338.28L66.44 338.32L66.44 338.34L66.44 338.37L66.44 338.39L66.44 338.42L66.45 338.44L66.45 338.47L66.45 338.49L66.46 338.52L66.47 338.54L66.47 338.56L66.48 338.59L66.49 338.61L66.5 338.63L66.51 338.65L66.52 338.67L66.53 338.69L66.54 338.71L66.56 338.73L66.57 338.75L66.58 338.76L66.6 338.78L66.61 338.8L66.63 338.81L66.65 338.83L66.66 338.84L66.68 338.85L66.7 338.87L66.72 338.88L66.74 338.89L66.76 338.9L66.78 338.91L66.8 338.91L66.83 338.92L66.85 338.93L66.87 338.93L66.9 338.94L66.92 338.94L66.94 338.94L66.97 338.95L67 338.95L67.09 338.91L67.27 338.79L67.53 338.6L67.87 338.34L68.28 338.02L68.76 337.63L69.3 337.19L69.91 336.7L70.56 336.15L71.27 335.56L72.02 334.93L72.82 334.27L73.65 333.57L74.51 332.84L75.4 332.08L76.31 331.3L77.24 330.51L78.18 329.7L79.13 328.89L80.08 328.06L81.04 327.24L81.99 326.42L82.92 325.61L83.85 324.8L84.75 324.01L85.63 323.24L86.49 322.49L87.31 321.77L88.09 321.08L88.83 320.42L89.53 319.8L90.17 319.22L90.75 318.69L91.28 318.21L91.74 317.79L92.13 317.42L92.45 317.11L92.69 316.87L92.84 316.7L92.91 316.6L92.9 316.55L92.86 316.44L92.78 316.27L92.68 316.05L92.54 315.78L92.38 315.46L92.18 315.08L91.96 314.66L91.71 314.19L91.44 313.67L91.14 313.1L90.81 312.49L90.45 311.84L90.08 311.14L89.68 310.4L89.25 309.63L88.8 308.81L88.33 307.95L87.84 307.06L87.33 306.13L86.8 305.17L86.25 304.18L85.68 303.15L85.09 302.09L84.49 301L83.87 299.88L83.23 298.73L82.57 297.56L81.9 296.36L81.22 295.13L80.52 293.89L79.81 292.62L79.09 291.33L78.35 290.02L77.6 288.69L76.85 287.34L76.08 285.98L75.3 284.6L74.51 283.2L73.72 281.8L72.92 280.39L72.14 278.99L71.35 277.61L70.58 276.25L69.82 274.9L69.06 273.57L68.32 272.25L67.58 270.96L66.86 269.69L66.15 268.44L65.45 267.21L64.76 266.01L64.09 264.83L63.44 263.68L62.8 262.55L62.17 261.46L61.56 260.39L60.97 259.36L60.4 258.36L59.84 257.39L59.31 256.46L58.79 255.56L58.3 254.7L57.82 253.87L57.37 253.09L56.94 252.35L56.54 251.65L56.16 250.99L55.8 250.38L55.47 249.81L55.16 249.28L54.88 248.81L54.63 248.38L54.41 248L54.21 247.68L54.05 247.4L53.91 247.18L53.81 247.01L53.73 246.9L53.69 246.85L53.65 246.81L53.62 246.78L53.59 246.76L53.55 246.74L53.52 246.72L53.5 246.71L53.47 246.71L53.44 246.71L53.42 246.71L53.4 246.72ZM266.3 133.75L266.27 133.76L266.23 133.78L266.2 133.81L266.17 133.85L266.15 133.9L266.13 133.96L266.11 134.03L266.1 134.11L266.1 134.21L266.1 134.32L266.1 134.44L266.11 134.59L266.13 134.75L266.15 134.92L266.18 135.12L266.21 135.33L266.25 135.57L266.3 135.83L266.35 136.11L266.41 136.41L266.47 136.74L266.54 137.1L266.62 137.48L266.71 137.88L266.8 138.32L266.91 138.78L267.01 139.27L267.13 139.79L267.26 140.35L267.39 140.94L267.53 141.56L267.68 142.21L267.84 142.9L268.01 143.63L268.19 144.39L268.37 145.19L268.57 146.03L268.77 146.9L269.21 148.73L269.64 150.55L270.06 152.34L270.48 154.12L270.9 155.88L271.31 157.61L271.71 159.31L272.11 161L272.5 162.65L272.88 164.28L273.25 165.87L273.62 167.44L273.98 168.97L274.33 170.47L274.67 171.93L275.01 173.35L275.33 174.73L275.65 176.07L275.95 177.37L276.24 178.63L276.52 179.84L276.79 181.01L277.05 182.12L277.3 183.19L277.54 184.21L277.76 185.17L277.97 186.08L278.16 186.93L278.35 187.73L278.51 188.47L278.67 189.14L278.81 189.76L278.93 190.31L279.04 190.8L279.13 191.22L279.21 191.58L279.27 191.86L279.31 192.08L279.34 192.22L279.35 192.29L279.4 192.32L279.54 192.4L279.77 192.53L280.09 192.7L280.5 192.91L280.99 193.17L281.57 193.47L282.23 193.81L282.98 194.18L283.8 194.6L284.69 195.06L285.66 195.55L286.71 196.08L287.82 196.64L289.01 197.24L290.26 197.87L291.58 198.53L292.96 199.23L294.4 199.96L295.9 200.71L297.47 201.49L299.08 202.31L300.76 203.14L302.48 204.01L304.26 204.9L306.08 205.81L307.95 206.75L309.87 207.7L311.83 208.68L313.83 209.68L315.87 210.7L317.95 211.74L320.07 212.79L322.22 213.86L324.4 214.95L326.61 216.05L328.85 217.17L331.12 218.29L333.41 219.43L335.73 220.58L392.11 248.53L393.44 251.54L393.5 251.69L393.59 251.9L393.7 252.17L393.82 252.48L393.97 252.85L394.14 253.27L394.33 253.74L394.53 254.25L394.76 254.81L395 255.42L395.26 256.08L395.54 256.77L395.83 257.51L396.14 258.29L396.46 259.1L396.8 259.96L397.16 260.85L397.52 261.78L397.91 262.75L398.3 263.74L398.71 264.77L399.12 265.83L399.56 266.93L400 268.04L400.45 269.19L400.91 270.36L401.38 271.56L401.86 272.79L402.35 274.03L402.85 275.3L403.35 276.58L403.86 277.89L404.38 279.21L404.9 280.55L405.43 281.91L405.97 283.28L406.51 284.66L407.05 286.05L407.6 287.46L408.15 288.87L408.7 290.28L409.25 291.67L409.8 293.06L410.34 294.42L410.87 295.78L411.4 297.11L411.92 298.43L412.44 299.73L412.94 301.01L413.44 302.27L413.93 303.5L414.41 304.71L414.88 305.9L415.34 307.06L415.8 308.19L416.23 309.3L416.66 310.37L417.08 311.42L417.48 312.43L417.88 313.41L418.25 314.35L418.62 315.26L418.97 316.14L419.3 316.97L419.62 317.77L419.93 318.53L420.22 319.24L420.49 319.91L420.74 320.54L420.98 321.13L421.2 321.66L421.4 322.15L421.59 322.6L421.75 322.99L421.89 323.33L422.02 323.62L422.12 323.86L422.2 324.04L422.26 324.17L422.3 324.24L422.35 324.21L422.39 323.97L422.43 323.52L422.47 322.87L422.5 322.04L422.53 321.03L422.55 319.86L422.57 318.53L422.59 317.05L422.6 315.43L422.61 313.69L422.61 311.83L422.61 309.85L422.61 307.79L422.6 305.63L422.59 303.39L422.58 301.09L422.57 298.73L422.55 296.31L422.52 293.86L422.5 291.38L422.47 288.88L422.44 286.36L422.41 283.85L422.37 281.35L422.33 278.87L422.29 276.41L422.25 274L422.21 271.63L422.16 269.32L422.11 267.08L422.06 264.92L422.01 262.84L421.95 260.87L421.9 259L421.84 257.25L421.78 255.62L421.72 254.14L421.66 252.79L421.6 251.61L421.18 243.77L343.99 188.79L340.83 186.53L337.69 184.29L334.58 182.08L331.51 179.89L328.48 177.73L325.49 175.61L322.55 173.51L319.65 171.44L316.79 169.41L313.99 167.42L311.25 165.47L308.55 163.55L305.92 161.68L303.35 159.85L300.84 158.07L298.4 156.34L296.03 154.65L293.73 153.02L291.51 151.44L289.36 149.92L287.29 148.45L285.3 147.04L283.39 145.69L281.58 144.4L279.85 143.18L278.21 142.02L276.67 140.93L275.23 139.91L273.88 138.96L272.64 138.08L271.5 137.28L270.47 136.56L269.55 135.91L268.74 135.35L268.05 134.86L267.47 134.46L267.01 134.15L266.68 133.92L266.47 133.78L266.39 133.74L266.35 133.74L266.3 133.75ZM541.94 215.41L541.88 215.47L541.83 215.55L541.77 215.67L541.73 215.81L541.68 215.98L541.64 216.18L541.6 216.41L541.56 216.67L541.53 216.96L541.5 217.29L541.47 217.65L541.44 218.05L541.42 218.48L541.4 218.96L541.38 219.47L541.36 220.02L541.34 220.6L541.33 221.24L541.32 221.91L541.31 222.62L541.3 223.38L541.3 224.19L541.29 225.04L541.29 225.94L541.29 226.89L541.29 238.93L555.37 253.36L556.16 254.18L556.95 254.99L557.72 255.79L558.49 256.57L559.24 257.34L559.98 258.09L560.7 258.83L561.41 259.54L562.1 260.24L562.77 260.91L563.42 261.56L564.05 262.19L564.66 262.79L565.24 263.37L565.8 263.92L566.33 264.44L566.83 264.93L567.31 265.39L567.75 265.81L568.16 266.2L568.54 266.56L568.88 266.88L569.19 267.16L569.46 267.41L569.7 267.61L569.89 267.77L570.04 267.89L570.15 267.97L570.22 268L570.28 268L570.37 267.97L570.49 267.92L570.63 267.85L570.79 267.75L570.98 267.63L571.19 267.48L571.42 267.31L571.67 267.12L571.94 266.91L572.23 266.68L572.53 266.43L572.86 266.17L573.2 265.88L573.56 265.58L573.93 265.26L574.31 264.92L574.71 264.58L575.12 264.21L575.55 263.83L575.98 263.44L576.42 263.04L576.88 262.63L577.34 262.2L577.81 261.77L578.28 261.33L578.76 260.87L579.25 260.41L579.74 259.94L588.5 251.68L565.73 233.82L564.45 232.81L563.18 231.82L561.93 230.83L560.7 229.87L559.49 228.92L558.3 227.99L557.14 227.08L556.01 226.19L554.9 225.33L553.83 224.49L552.79 223.68L551.79 222.89L550.82 222.14L549.9 221.41L549.01 220.72L548.17 220.07L547.38 219.45L546.63 218.87L545.94 218.32L545.29 217.82L544.71 217.36L544.17 216.95L543.7 216.58L543.29 216.26L542.94 215.98L542.65 215.76L542.43 215.58L542.28 215.47L542.2 215.4L542.13 215.37L542.06 215.36L542 215.37L541.94 215.41ZM87.33 198.25L86.74 199.04L85.97 200.1L85.01 201.42L83.91 202.97L82.68 204.71L81.33 206.62L79.88 208.67L78.36 210.84L76.78 213.1L75.16 215.42L73.52 217.77L71.88 220.13L70.26 222.47L68.67 224.77L67.14 226.99L65.69 229.11L64.33 231.1L63.08 232.93L61.96 234.58L61 236.02L60.2 237.23L59.59 238.17L59.19 238.81L59.01 239.14L59.01 239.34L59.09 239.66L59.26 240.12L59.49 240.68L59.79 241.34L60.15 242.09L60.57 242.92L61.03 243.81L61.52 244.75L62.05 245.73L62.61 246.74L63.18 247.77L63.77 248.8L64.35 249.82L64.94 250.83L65.52 251.8L66.08 252.72L66.62 253.6L67.13 254.4L67.61 255.13L68.04 255.76L68.42 256.29L68.74 256.71L69 256.99L69.19 257.14L69.31 257.14L69.37 257.05L69.46 256.86L69.58 256.57L69.73 256.17L69.91 255.66L70.13 255.03L70.39 254.28L70.69 253.4L71.02 252.38L71.4 251.22L71.82 249.91L72.29 248.45L72.81 246.83L73.38 245.05L73.99 243.09L74.67 240.96L75.39 238.65L76.18 236.14L77.02 233.45L77.92 230.56L78.89 227.46L79.92 224.15L81.01 220.62L82.18 216.87L83.41 212.89L84.72 208.68L84.93 207.99L85.14 207.32L85.35 206.66L85.55 206.01L85.74 205.38L85.93 204.76L86.12 204.16L86.29 203.57L86.46 203.01L86.62 202.46L86.77 201.94L86.92 201.44L87.05 200.96L87.18 200.51L87.3 200.09L87.4 199.7L87.5 199.33L87.59 199L87.67 198.7L87.73 198.43L87.78 198.2L87.83 198.01L87.86 197.85L87.87 197.73L87.88 197.65L87.87 197.61L87.71 197.76L87.33 198.25ZM508.98 144.04L508.97 144.06L508.97 144.09L508.97 144.13L508.97 144.17L508.98 144.22L509 144.28L509.02 144.35L509.04 144.42L509.07 144.5L509.1 144.59L509.13 144.69L509.17 144.79L509.22 144.9L509.27 145.01L509.32 145.13L509.37 145.26L509.43 145.4L509.5 145.53L509.56 145.68L509.63 145.83L509.71 145.99L509.78 146.15L509.87 146.31L509.95 146.49L510.04 146.66L510.13 146.84L510.22 147.03L510.32 147.22L510.42 147.41L510.52 147.61L510.63 147.81L510.74 148.02L510.85 148.23L510.96 148.45L511.09 148.68L511.24 148.96L511.41 149.27L511.6 149.63L511.81 150.02L512.04 150.45L512.29 150.92L512.56 151.42L512.84 151.95L513.14 152.52L513.46 153.11L513.8 153.74L514.15 154.4L514.52 155.09L514.9 155.8L515.3 156.54L515.71 157.31L516.13 158.1L516.57 158.91L517.01 159.75L517.47 160.6L517.94 161.48L518.42 162.38L518.91 163.3L519.41 164.23L519.92 165.18L520.43 166.14L520.96 167.12L521.49 168.11L522.02 169.12L522.57 170.13L523.12 171.16L523.67 172.19L524.23 173.24L524.79 174.29L525.35 175.34L525.92 176.41L526.49 177.47L527.06 178.54L527.63 179.61L528.2 180.67L528.77 181.73L529.33 182.77L529.89 183.81L530.44 184.83L530.99 185.85L531.53 186.84L532.06 187.83L532.59 188.8L533.11 189.76L533.62 190.7L534.12 191.62L534.61 192.53L535.09 193.41L535.56 194.28L536.02 195.12L536.47 195.95L536.91 196.75L537.34 197.52L537.75 198.28L538.15 199L538.54 199.71L538.91 200.38L539.27 201.03L539.61 201.65L539.94 202.23L540.25 202.79L540.55 203.32L540.83 203.81L541.09 204.27L541.33 204.7L541.55 205.09L541.76 205.45L541.94 205.77L542.11 206.05L542.25 206.29L542.38 206.49L542.48 206.66L542.56 206.78L542.62 206.86L542.78 207.02L543.05 207.27L543.43 207.59L543.9 207.99L544.47 208.46L545.12 208.99L545.86 209.58L546.66 210.23L547.54 210.93L548.48 211.68L549.48 212.47L550.52 213.29L551.61 214.15L552.75 215.04L553.91 215.95L555.1 216.88L556.32 217.82L557.54 218.78L558.78 219.74L560.02 220.7L561.27 221.65L562.5 222.6L563.72 223.54L564.91 224.46L566.09 225.36L567.23 226.23L568.33 227.07L569.39 227.88L570.4 228.64L571.36 229.36L572.25 230.03L573.08 230.65L573.84 231.21L574.51 231.71L575.11 232.14L575.61 232.5L576.01 232.78L576.31 232.98L576.51 233.09L576.59 233.12L576.57 233.07L576.5 232.95L576.37 232.76L576.19 232.5L575.96 232.17L575.67 231.78L575.34 231.32L574.96 230.79L574.53 230.2L574.05 229.55L573.53 228.85L572.96 228.08L572.35 227.26L571.7 226.38L571.01 225.45L570.27 224.46L569.5 223.43L568.69 222.34L567.84 221.21L566.96 220.03L566.04 218.81L565.09 217.54L564.1 216.23L563.09 214.88L562.04 213.49L560.97 212.06L559.87 210.6L558.74 209.1L557.58 207.57L556.4 206.01L555.19 204.41L553.97 202.79L552.72 201.14L551.45 199.46L550.16 197.76L548.85 196.03L547.53 194.28L546.19 192.52L544.83 190.73L543.46 188.93L542.09 187.12L540.73 185.33L539.39 183.56L538.05 181.81L536.74 180.08L535.44 178.38L534.16 176.69L532.89 175.03L531.65 173.4L530.43 171.8L529.23 170.22L528.05 168.68L526.9 167.17L525.77 165.7L524.67 164.25L523.6 162.85L522.55 161.49L521.54 160.16L520.55 158.88L519.6 157.64L518.69 156.44L517.81 155.29L516.96 154.19L516.15 153.13L515.38 152.13L514.65 151.18L513.95 150.28L513.3 149.43L512.7 148.65L512.13 147.92L511.61 147.24L511.14 146.63L510.71 146.08L510.33 145.6L510.01 145.18L509.73 144.82L509.5 144.54L509.33 144.32L509.21 144.18L509.14 144.1L509.1 144.07L509.07 144.05L509.04 144.03L509.02 144.03L509 144.03L508.98 144.04Z" id="b1d8HIV7V6"></path></defs><g><g><g><use xlink:href="#b1d8HIV7V6" opacity="1" fill="#002663" fill-opacity="1"></use><g><use xlink:href="#b1d8HIV7V6" opacity="1" fill-opacity="0" stroke="#000000" stroke-width="1" stroke-opacity="0"></use></g></g></g></g></svg>