<?xml version="1.0" encoding="UTF-8" standalone="no"?>
<!DOCTYPE svg PUBLIC "-//W3C//DTD SVG 1.1//EN" "http://www.w3.org/Graphics/SVG/1.1/DTD/svg11.dtd">
<svg version="1.1" xmlns="http://www.w3.org/2000/svg" xmlns:xlink="http://www.w3.org/1999/xlink" preserveAspectRatio="xMidYMid meet" viewBox="0 0 640 640" width="640" height="640"><defs><path d="M137.07 212.74C170.65 212.74 207.58 240.42 217.87 272.6C218.41 270.78 222.75 256.23 223.29 254.41C229.66 230.99 241.75 209.61 257.93 191.3C227.05 157.34 182.3 135.08 137.07 135.08C128.12 135.08 56.57 135.08 47.62 135.08C40.47 135.08 34.68 140.88 34.68 148.03C34.68 153.2 34.68 194.62 34.68 199.8C34.68 206.95 40.47 212.74 47.62 212.74C65.51 212.74 128.12 212.74 137.07 212.74Z" id="a7oBwhLia"></path><path d="M491.78 346.57C488.08 348.12 486.02 352.73 486.02 359.55C486.02 363.47 486.02 383.07 486.02 418.37C435.93 418.37 408.11 418.37 402.55 418.37C369.79 418.37 333.82 392.06 322.51 360.9C321.9 362.99 317 379.66 316.38 381.74C310.58 403.12 300.28 424.86 286.56 445.03C317.18 476.04 359.67 496.03 402.55 496.03C408.12 496.03 435.94 496.03 486.02 496.03C486.02 530.9 486.02 550.26 486.02 554.14C486.02 560.94 488.08 565.58 491.8 567.12C495.53 568.67 500.23 566.86 505.07 562.02C514.98 552.43 594.23 475.73 604.13 466.14C606.61 463.65 607.98 460.37 607.99 456.84C608 453.32 606.63 450.02 604.15 447.55C597.54 441.15 564.52 409.19 505.08 351.67C498.71 347.24 494.28 345.54 491.78 346.57Z" id="ayyk0RJs2"></path><path d="M402.55 218.07C408.12 218.07 435.94 218.07 486.02 218.07C486.02 255.51 486.02 276.3 486.02 280.46C486.02 287.28 488.08 291.87 491.78 293.43C495.53 294.98 500.25 293.17 505.08 288.35C514.98 278.76 594.24 202.04 604.15 192.45C606.63 189.97 608 186.68 608 183.15C607.99 179.63 606.62 176.33 604.15 173.86C594.24 164.27 514.98 87.56 505.08 77.97C500.24 73.13 495.53 71.32 491.81 72.88C488.09 74.41 486.02 79.06 486.02 85.86C486.02 89.49 486.02 107.67 486.02 140.4C435.93 140.4 408.11 140.4 402.55 140.4C330.89 140.4 263.51 189.96 245.96 255.22C243.25 264.84 221.5 341.8 218.78 351.42C208.29 390.41 166.3 431.64 137.07 431.64C127.86 431.64 54.15 431.64 44.94 431.64C37.79 431.64 32 437.44 32 444.58C32 449.76 32 491.19 32 496.36C32 503.51 37.79 509.31 44.94 509.31C54.15 509.31 127.86 509.31 137.07 509.31C208.65 509.31 275.88 438.1 293.64 372.08C295.45 365.66 304.52 333.6 320.83 275.88C350.99 237.34 378.23 218.07 402.55 218.07Z" id="b3tx9Msufc"></path></defs><g><g><g><use xlink:href="#a7oBwhLia" opacity="1" fill="#0c2445" fill-opacity="1"></use><g><use xlink:href="#a7oBwhLia" opacity="1" fill-opacity="0" stroke="#000000" stroke-width="1" stroke-opacity="0"></use></g></g><g><use xlink:href="#ayyk0RJs2" opacity="1" fill="#0c2445" fill-opacity="1"></use><g><use xlink:href="#ayyk0RJs2" opacity="1" fill-opacity="0" stroke="#000000" stroke-width="1" stroke-opacity="0"></use></g></g><g><use xlink:href="#b3tx9Msufc" opacity="1" fill="#ba032e" fill-opacity="1"></use><g><use xlink:href="#b3tx9Msufc" opacity="1" fill-opacity="0" stroke="#000000" stroke-width="1" stroke-opacity="0"></use></g></g></g></g></svg>