<?xml version="1.0" encoding="UTF-8" standalone="no"?>
<!DOCTYPE svg PUBLIC "-//W3C//DTD SVG 1.1//EN" "http://www.w3.org/Graphics/SVG/1.1/DTD/svg11.dtd">
<svg version="1.1" xmlns="http://www.w3.org/2000/svg" xmlns:xlink="http://www.w3.org/1999/xlink" preserveAspectRatio="xMidYMid meet" viewBox="0 0 640 640" width="640" height="640"><defs><path d="M556.84 72.75C502.55 18.44 414.16 18.44 359.85 72.76C353.6 79.01 303.6 129.01 297.35 135.26C286.1 146.5 286.1 164.74 297.35 175.99C308.6 187.24 326.84 187.24 338.08 175.99C344.33 169.74 394.33 119.74 400.58 113.49C432.44 81.63 484.26 81.63 516.13 113.49C517.17 114.53 525.5 122.85 526.54 123.89C558.39 155.75 558.39 207.58 526.54 239.43C516.54 249.43 436.54 329.44 426.53 339.44C414.34 351.64 398.93 359.53 382 362.28C356.07 366.5 329.54 357.97 311.01 339.46C309.97 338.42 301.65 330.1 300.61 329.06C297.56 325.99 294.75 322.69 292.23 319.25C282.87 306.39 264.86 303.56 251.99 312.92C239.13 322.28 236.29 340.3 245.66 353.16C249.91 359 254.68 364.57 259.85 369.75C260.89 370.8 269.24 379.16 270.28 380.2C296.56 406.47 332.26 420.97 368.93 420.97C376.35 420.97 383.83 420.38 391.26 419.16C420.19 414.46 446.46 400.98 467.28 380.18C477.28 370.18 557.27 290.17 567.26 280.17C621.57 225.86 621.58 137.49 567.26 83.15C565.18 81.07 557.89 73.79 556.84 72.75Z" id="c5VTEKLql"></path><path d="M239.49 526.49C207.62 558.35 155.81 558.35 123.96 526.5C122.91 525.46 114.58 517.11 113.54 516.06C98.11 500.64 89.61 480.14 89.61 458.32C89.61 436.5 98.11 415.99 113.53 400.56C123.53 390.56 203.54 310.55 213.54 300.54C225.72 288.36 241.13 280.46 258.07 277.69C283.99 273.49 310.53 282.02 329.08 300.55C330.12 301.59 338.44 309.92 339.48 310.96C342.54 314 345.34 317.29 347.84 320.72C357.2 333.59 375.2 336.42 388.08 327.07C400.94 317.7 403.77 299.69 394.41 286.82C390.16 280.99 385.4 275.41 380.22 270.23C379.18 269.19 370.84 260.86 369.8 259.81C338.19 228.19 292.97 213.62 248.79 220.83C219.85 225.56 193.57 239.04 172.81 259.81C162.81 269.81 82.8 349.81 72.79 359.81C46.49 386.13 32 421.11 32 458.32C32.01 495.53 46.5 530.51 72.79 556.79C73.84 557.84 82.17 566.18 83.21 567.23C110.37 594.39 146.05 607.96 181.72 607.96C217.39 607.96 253.06 594.39 280.21 567.22C286.46 560.97 336.47 510.98 342.72 504.74C353.98 493.48 353.98 475.25 342.73 464C331.47 452.76 313.24 452.75 301.99 463.99C289.49 476.49 245.74 520.24 239.49 526.49Z" id="cT6gaJlHN"></path></defs><g><g><g><use xlink:href="#c5VTEKLql" opacity="1" fill="#0c2445" fill-opacity="1"></use><g><use xlink:href="#c5VTEKLql" opacity="1" fill-opacity="0" stroke="#000000" stroke-width="1" stroke-opacity="0"></use></g></g><g><use xlink:href="#cT6gaJlHN" opacity="1" fill="#ba032e" fill-opacity="1"></use><g><use xlink:href="#cT6gaJlHN" opacity="1" fill-opacity="0" stroke="#000000" stroke-width="1" stroke-opacity="0"></use></g></g></g></g></svg>