<?xml version="1.0" encoding="UTF-8" standalone="no"?>
<!DOCTYPE svg PUBLIC "-//W3C//DTD SVG 1.1//EN" "http://www.w3.org/Graphics/SVG/1.1/DTD/svg11.dtd">
<svg version="1.1" xmlns="http://www.w3.org/2000/svg" xmlns:xlink="http://www.w3.org/1999/xlink" preserveAspectRatio="xMidYMid meet" viewBox="0 0 640 640" width="640" height="640"><defs><path d="M396.37 8.48L408.51 11.47L420.45 14.88L432.19 18.71L443.7 22.94L454.99 27.57L466.05 32.59L476.85 37.98L487.4 43.74L497.68 49.86L507.69 56.33L517.4 63.14L526.82 70.28L535.93 77.74L544.72 85.52L553.18 93.59L561.3 101.96L569.07 110.61L576.48 119.54L583.52 128.73L590.18 138.18L596.45 147.88L602.32 157.81L607.78 167.96L612.82 178.34L617.43 188.93L621.59 199.71L625.31 210.69L628.56 221.84L631.34 233.17L633.64 244.66L635.44 256.3L636.74 268.08L637.53 280L637.79 292.04L637.75 297.11L637.61 302.17L637.37 307.2L637.05 312.21L636.63 317.19L636.12 322.15L635.53 327.09L634.84 332L634.07 336.89L633.21 341.75L632.26 346.58L631.22 351.39L630.1 356.16L628.9 360.91L627.61 365.62L626.24 370.31L624.79 374.96L623.26 379.58L621.64 384.17L619.95 388.73L618.18 393.25L616.33 397.74L614.4 402.19L612.39 406.6L610.31 410.98L608.16 415.32L605.93 419.62L603.62 423.88L601.25 428.1L598.8 432.29L596.28 436.43L593.69 440.53L591.03 444.58L588.3 448.6L585.5 452.57L582.63 456.49L579.7 460.37L576.7 464.21L573.64 467.99L570.51 471.73L570.72 471.65L567.84 475.04L565.09 478.51L562.48 482.04L560.01 485.65L557.69 489.33L555.5 493.06L553.45 496.86L551.54 500.71L549.78 504.61L548.15 508.56L546.67 512.55L545.32 516.58L544.12 520.64L543.06 524.74L542.14 528.86L541.36 533.01L540.73 537.18L540.23 541.36L539.88 545.56L539.67 549.77L539.6 553.98L539.67 558.19L539.89 562.4L540.24 566.6L540.75 570.79L541.39 574.96L542.17 579.12L543.1 583.26L544.18 587.37L545.39 591.45L546.75 595.49L548.25 599.5L549.9 603.47L551.69 607.39L553.62 611.27L555.7 615.09L557.92 618.85L560.29 622.56L562.8 626.2L565.46 629.77L565.62 629.99L565.7 630.11L565.78 630.22L565.85 630.34L565.93 630.46L565.99 630.58L566.06 630.7L566.18 630.94L566.24 631.07L566.3 631.19L566.35 631.32L566.4 631.44L566.45 631.57L566.61 632.09L566.64 632.23L566.67 632.36L566.69 632.49L566.72 632.63L566.74 632.76L566.76 632.9L566.77 633.03L566.79 633.17L566.79 633.3L566.8 633.44L566.8 633.99L566.79 634.13L566.78 634.26L566.72 634.68L566.7 634.81L566.67 634.95L566.62 635.2L566.55 635.45L566.47 635.7L566.38 635.94L566.29 636.17L566.19 636.4L565.95 636.84L565.82 637.05L565.69 637.25L565.55 637.45L565.39 637.64L565.24 637.83L565.07 638.01L564.9 638.18L564.72 638.35L564.54 638.51L564.35 638.66L564.16 638.8L563.96 638.94L563.75 639.07L563.54 639.19L563.33 639.3L563.11 639.41L562.89 639.5L562.66 639.59L562.43 639.67L562.2 639.74L561.72 639.86L561.48 639.9L561.23 639.93L560.99 639.96L560.49 639.98L560.23 639.97L559.73 639.93L559.47 639.89L559.22 639.84L555.77 639.04L552.34 638.19L548.92 637.28L545.53 636.32L542.16 635.3L538.81 634.23L535.49 633.11L532.19 631.93L528.91 630.7L525.66 629.41L522.44 628.08L519.25 626.69L516.08 625.25L512.94 623.76L509.84 622.22L506.77 620.63L503.73 618.99L500.72 617.31L497.75 615.57L494.81 613.78L491.91 611.95L489.05 610.07L486.23 608.14L483.45 606.16L480.7 604.14L478 602.08L475.34 599.96L472.73 597.8L470.16 595.6L467.63 593.35L465.15 591.06L462.72 588.73L460.34 586.35L458 583.93L455.72 581.47L453.48 578.96L451.3 576.41L449.17 573.83L447.1 571.2L445.08 568.53L444.88 568.26L444.67 568L444.45 567.75L444.23 567.51L444 567.27L443.52 566.83L443.27 566.62L443.01 566.42L442.75 566.23L442.48 566.04L442.21 565.87L441.93 565.7L441.37 565.4L441.08 565.26L440.78 565.13L440.49 565.01L440.19 564.9L439.88 564.8L439.58 564.71L439.27 564.63L438.95 564.56L438.64 564.49L438.32 564.44L438 564.4L437.36 564.34L437.04 564.33L436.72 564.33L436.39 564.34L436.07 564.35L435.74 564.38L435.42 564.42L435.09 564.47L434.77 564.53L434.45 564.61L434.12 564.69L433.8 564.78L433.48 564.88L430.74 565.83L428 566.75L425.25 567.65L422.49 568.53L419.72 569.38L416.95 570.2L414.17 571.01L411.39 571.79L408.6 572.54L405.8 573.28L403 573.99L400.19 574.67L397.38 575.33L394.56 575.97L391.74 576.58L388.91 577.17L386.08 577.74L383.24 578.28L380.4 578.8L377.56 579.29L374.71 579.76L371.86 580.21L369 580.63L366.14 581.02L363.28 581.4L360.41 581.75L357.54 582.07L354.66 582.37L351.79 582.65L348.91 582.9L346.03 583.13L343.14 583.33L340.26 583.51L337.37 583.66L334.48 583.79L331.59 583.9L328.7 583.98L325.8 584.04L322.9 584.07L320.01 584.08L306.91 583.83L293.94 583.11L281.12 581.91L268.46 580.26L255.96 578.15L243.64 575.59L231.5 572.61L219.56 569.19L207.83 565.37L196.31 561.14L185.02 556.51L173.97 551.49L163.16 546.1L152.61 540.34L142.33 534.22L132.33 527.75L122.61 520.94L113.19 513.8L104.09 506.34L95.3 498.56L86.84 490.49L78.72 482.12L70.94 473.46L63.53 464.54L56.49 455.34L49.83 445.9L43.56 436.2L37.69 426.27L32.23 416.11L27.19 405.74L22.58 395.15L18.42 384.37L14.71 373.39L11.45 362.24L8.67 350.91L6.38 339.42L4.57 327.78L3.27 316L2.48 304.08L2.22 292.04L2.48 280L3.27 268.08L4.57 256.3L6.38 244.66L8.67 233.17L11.45 221.84L14.71 210.69L18.42 199.71L22.58 188.93L27.19 178.34L32.23 167.96L37.69 157.81L43.56 147.88L49.83 138.18L56.49 128.73L63.53 119.54L70.94 110.61L78.72 101.96L86.84 93.59L95.3 85.52L104.09 77.74L113.19 70.28L122.61 63.14L132.33 56.33L142.33 49.86L152.61 43.74L163.16 37.98L173.97 32.59L185.02 27.57L196.31 22.94L207.83 18.71L219.56 14.88L231.5 11.47L243.64 8.48L255.96 5.93L268.46 3.82L281.12 2.16L293.94 0.97L306.91 0.24L320.01 0L333.11 0.24L346.07 0.97L358.89 2.16L371.55 3.82L384.05 5.93L384.05 5.93L396.37 8.48ZM317.93 135.82L317.58 135.91L317.24 136.01L316.9 136.12L316.56 136.24L316.23 136.38L315.91 136.53L315.59 136.69L315.28 136.86L314.97 137.05L314.68 137.24L314.39 137.45L314.1 137.67L313.83 137.9L313.56 138.14L313.3 138.4L313.06 138.66L312.82 138.93L312.59 139.22L312.37 139.51L312.16 139.81L311.97 140.13L311.79 140.45L311.61 140.78L311.45 141.12L311.31 141.47L311.17 141.83L277.38 238.87L174.7 241.01L174.49 241.02L174.27 241.03L173.85 241.07L173.65 241.1L173.23 241.16L173.03 241.2L172.82 241.25L172.42 241.35L172.02 241.47L171.82 241.54L171.63 241.61L171.43 241.68L171.05 241.84L170.86 241.93L170.68 242.02L170.49 242.12L170.31 242.22L170.13 242.33L169.96 242.43L169.78 242.55L169.61 242.66L169.44 242.78L169.27 242.91L169.11 243.03L168.95 243.17L168.79 243.3L168.63 243.44L168.48 243.58L168.18 243.88L168.04 244.03L167.76 244.35L167.63 244.52L167.5 244.68L167.27 244.99L167.06 245.31L166.86 245.63L166.68 245.96L166.51 246.29L166.36 246.62L166.22 246.97L166.1 247.31L165.99 247.66L165.89 248.01L165.81 248.36L165.74 248.71L165.68 249.07L165.64 249.42L165.6 250.14L165.6 250.5L165.62 250.85L165.65 251.21L165.69 251.56L165.74 251.92L165.81 252.27L165.89 252.61L165.99 252.96L166.1 253.3L166.22 253.64L166.35 253.97L166.5 254.3L166.66 254.62L166.84 254.94L167.02 255.25L167.22 255.55L167.43 255.85L167.66 256.14L167.9 256.42L168.15 256.7L168.41 256.96L168.69 257.22L168.97 257.47L169.27 257.71L251.13 319.83L221.43 418.19L221.37 418.4L221.32 418.6L221.22 419.02L221.18 419.22L221.09 419.85L221.07 420.05L221.05 420.26L221.04 420.47L221.04 420.68L221.03 420.89L221.04 421.1L221.04 421.31L221.05 421.51L221.09 421.93L221.12 422.13L221.15 422.34L221.18 422.54L221.22 422.75L221.27 422.95L221.31 423.15L221.37 423.35L221.42 423.55L221.49 423.75L221.55 423.95L221.62 424.15L221.7 424.34L221.78 424.54L221.86 424.73L221.95 424.92L222.05 425.11L222.14 425.29L222.25 425.48L222.35 425.66L222.46 425.84L222.58 426.02L222.7 426.19L222.92 426.5L223.16 426.8L223.4 427.09L223.66 427.36L223.92 427.62L224.2 427.87L224.48 428.11L225.06 428.55L225.36 428.75L225.67 428.93L225.99 429.11L226.31 429.27L226.64 429.42L226.97 429.55L227.31 429.68L227.99 429.88L228.34 429.96L228.69 430.03L229.04 430.09L229.39 430.13L229.75 430.16L230.11 430.18L230.46 430.18L230.82 430.17L231.18 430.14L231.54 430.1L231.89 430.05L232.25 429.98L232.6 429.9L232.95 429.8L233.3 429.69L233.65 429.57L233.99 429.43L234.33 429.28L234.66 429.11L235.32 428.73L235.64 428.51L320.01 369.87L404.39 428.51L404.57 428.63L404.74 428.75L404.93 428.86L405.11 428.97L405.29 429.07L405.48 429.17L405.86 429.35L406.24 429.51L406.44 429.59L406.63 429.66L406.83 429.73L407.23 429.85L407.63 429.95L407.84 429.99L408.04 430.03L408.25 430.07L408.45 430.1L408.66 430.12L408.86 430.14L409.07 430.16L409.49 430.18L409.9 430.18L410.32 430.16L410.95 430.1L411.15 430.06L411.36 430.03L411.57 429.99L411.78 429.94L411.98 429.89L412.19 429.84L412.39 429.78L412.76 429.66L413.11 429.53L413.46 429.39L413.8 429.23L414.13 429.06L414.45 428.88L415.07 428.48L415.36 428.26L415.92 427.8L416.18 427.55L416.43 427.29L416.67 427.03L416.91 426.76L417.13 426.47L417.53 425.89L417.72 425.58L417.89 425.27L418.06 424.95L418.21 424.63L418.47 423.97L418.58 423.63L418.68 423.28L418.77 422.93L418.84 422.58L418.9 422.23L418.94 421.87L418.97 421.51L418.99 421.14L418.99 420.78L418.98 420.41L418.96 420.04L418.86 419.3L418.79 418.93L418.7 418.56L418.59 418.19L388.9 319.83L470.74 257.71L470.91 257.57L471.08 257.44L471.24 257.3L471.4 257.16L471.85 256.71L472 256.55L472.14 256.39L472.27 256.23L472.41 256.07L472.54 255.9L472.78 255.56L472.9 255.38L473.01 255.21L473.12 255.03L473.23 254.84L473.33 254.66L473.69 253.9L473.76 253.71L473.84 253.51L473.98 253.11L474.04 252.91L474.09 252.71L474.15 252.5L474.19 252.3L474.24 252.09L474.27 251.88L474.31 251.67L474.34 251.46L474.36 251.25L474.38 251.03L474.4 250.61L474.41 250.39L474.4 250.01L474.38 249.63L474.35 249.25L474.3 248.88L474.24 248.52L474.16 248.15L474.07 247.8L473.96 247.45L473.84 247.1L473.71 246.77L473.57 246.43L473.41 246.11L473.24 245.79L473.06 245.48L472.87 245.18L472.45 244.6L472.22 244.32L471.99 244.05L471.74 243.79L471.49 243.54L471.23 243.3L470.95 243.07L470.67 242.86L470.38 242.65L470.08 242.45L469.77 242.26L469.46 242.09L469.14 241.93L468.81 241.78L468.47 241.64L468.13 241.51L467.78 241.4L467.43 241.3L467.07 241.22L466.7 241.15L466.33 241.09L465.96 241.05L465.58 241.02L465.2 241.01L362.51 238.87L328.72 141.83L328.65 141.63L328.57 141.44L328.49 141.24L328.41 141.05L328.32 140.86L328.22 140.67L328.13 140.49L328.03 140.3L327.81 139.94L327.7 139.77L327.34 139.26L327.08 138.94L326.94 138.78L326.81 138.63L326.66 138.47L326.37 138.18L326.07 137.9L325.75 137.64L325.58 137.51L325.42 137.38L325.25 137.26L325.08 137.15L324.9 137.03L324.72 136.93L324.54 136.82L324.36 136.72L324.17 136.62L323.99 136.53L323.8 136.44L323.6 136.35L323.41 136.27L323.21 136.2L323.01 136.12L322.65 136.01L322.28 135.9L321.92 135.81L321.55 135.74L321.18 135.68L320.81 135.64L320.45 135.62L320.08 135.6L319.72 135.6L319.36 135.62L319 135.65L318.64 135.69L318.28 135.75L318.28 135.75L317.93 135.82Z" id="a4r3DdWkNQ"></path><path d="M346.07 0.97L358.89 2.16L371.55 3.82L384.05 5.93L396.37 8.48L408.51 11.47L420.45 14.88L432.19 18.71L443.7 22.94L454.99 27.57L466.05 32.59L476.85 37.98L487.4 43.74L497.68 49.86L507.69 56.33L517.4 63.14L526.82 70.28L535.93 77.74L544.72 85.52L553.18 93.59L561.3 101.96L569.07 110.61L576.48 119.54L583.52 128.73L590.18 138.18L596.45 147.88L602.32 157.81L607.78 167.96L612.82 178.34L617.43 188.93L621.59 199.71L625.31 210.69L628.56 221.84L631.34 233.17L633.64 244.66L635.44 256.3L636.74 268.08L637.53 280L637.79 292.04L637.75 297.11L637.61 302.17L637.37 307.2L637.05 312.21L636.63 317.19L636.12 322.15L635.53 327.09L634.84 332L634.07 336.89L633.21 341.75L632.26 346.58L631.22 351.39L630.1 356.16L628.9 360.91L627.61 365.62L626.24 370.31L624.79 374.96L623.26 379.58L621.64 384.17L619.95 388.73L618.18 393.25L616.33 397.74L614.4 402.19L612.39 406.6L610.31 410.98L608.16 415.32L605.93 419.62L603.62 423.88L601.25 428.1L598.8 432.29L596.28 436.43L593.69 440.53L591.03 444.58L588.3 448.6L585.5 452.57L582.63 456.49L579.7 460.37L576.7 464.21L573.64 467.99L570.51 471.73L570.72 471.65L567.84 475.04L565.09 478.51L562.48 482.04L560.01 485.65L557.69 489.33L555.5 493.06L553.45 496.86L551.54 500.71L549.78 504.61L548.15 508.56L546.67 512.55L545.32 516.58L544.12 520.64L543.06 524.74L542.14 528.86L541.36 533.01L540.73 537.18L540.23 541.36L539.88 545.56L539.67 549.77L539.6 553.98L539.67 558.19L539.89 562.4L540.24 566.6L540.75 570.79L541.39 574.96L542.17 579.12L543.1 583.26L544.18 587.37L545.39 591.45L546.75 595.49L548.25 599.5L549.9 603.47L551.69 607.39L553.62 611.27L555.7 615.09L557.92 618.85L560.29 622.56L562.8 626.2L565.46 629.77L565.62 629.99L565.7 630.11L565.78 630.22L565.85 630.34L565.93 630.46L565.99 630.58L566.06 630.7L566.18 630.94L566.24 631.07L566.3 631.19L566.35 631.32L566.4 631.44L566.45 631.57L566.61 632.09L566.64 632.23L566.67 632.36L566.69 632.49L566.72 632.63L566.74 632.76L566.76 632.9L566.77 633.03L566.79 633.17L566.79 633.3L566.8 633.44L566.8 633.99L566.79 634.13L566.78 634.26L566.72 634.68L566.7 634.81L566.67 634.95L566.62 635.2L566.55 635.45L566.47 635.7L566.38 635.94L566.29 636.17L566.19 636.4L565.95 636.84L565.82 637.05L565.69 637.25L565.55 637.45L565.39 637.64L565.24 637.83L565.07 638.01L564.9 638.18L564.72 638.35L564.54 638.51L564.35 638.66L564.16 638.8L563.96 638.94L563.75 639.07L563.54 639.19L563.33 639.3L563.11 639.41L562.89 639.5L562.66 639.59L562.43 639.67L562.2 639.74L561.72 639.86L561.48 639.9L561.23 639.93L560.99 639.96L560.49 639.98L560.23 639.97L559.73 639.93L559.47 639.89L559.22 639.84L555.77 639.04L552.34 638.19L548.92 637.28L545.53 636.32L542.16 635.3L538.81 634.23L535.49 633.11L532.19 631.93L528.91 630.7L525.66 629.41L522.44 628.08L519.25 626.69L516.08 625.25L512.94 623.76L509.84 622.22L506.77 620.63L503.73 618.99L500.72 617.31L497.75 615.57L494.81 613.78L491.91 611.95L489.05 610.07L486.23 608.14L483.45 606.16L480.7 604.14L478 602.08L475.34 599.96L472.73 597.8L470.16 595.6L467.63 593.35L465.15 591.06L462.72 588.73L460.34 586.35L458 583.93L455.72 581.47L453.48 578.96L451.3 576.41L449.17 573.83L447.1 571.2L445.08 568.53L444.88 568.26L444.67 568L444.45 567.75L444.23 567.51L444 567.27L443.52 566.83L443.27 566.62L443.01 566.42L442.75 566.23L442.48 566.04L442.21 565.87L441.93 565.7L441.37 565.4L441.08 565.26L440.78 565.13L440.49 565.01L440.19 564.9L439.88 564.8L439.58 564.71L439.27 564.63L438.95 564.56L438.64 564.49L438.32 564.44L438 564.4L437.36 564.34L437.04 564.33L436.72 564.33L436.39 564.34L436.07 564.35L435.74 564.38L435.42 564.42L435.09 564.47L434.77 564.53L434.45 564.61L434.12 564.69L433.8 564.78L433.48 564.88L430.74 565.83L428 566.75L425.25 567.65L422.49 568.53L419.72 569.38L416.95 570.2L414.17 571.01L411.39 571.79L408.6 572.54L405.8 573.28L403 573.99L400.19 574.67L397.38 575.33L394.56 575.97L391.74 576.58L388.91 577.17L386.08 577.74L383.24 578.28L380.4 578.8L377.56 579.29L374.71 579.76L371.86 580.21L369 580.63L366.14 581.02L363.28 581.4L360.41 581.75L357.54 582.07L354.66 582.37L351.79 582.65L348.91 582.9L346.03 583.13L343.14 583.33L340.26 583.51L337.37 583.66L334.48 583.79L331.59 583.9L328.7 583.98L325.8 584.04L322.9 584.07L320.01 584.08L306.91 583.83L293.94 583.11L281.12 581.91L268.46 580.26L255.96 578.15L243.64 575.59L231.5 572.61L219.56 569.19L207.83 565.37L196.31 561.14L185.02 556.51L173.97 551.49L163.16 546.1L152.61 540.34L142.33 534.22L132.33 527.75L122.61 520.94L113.19 513.8L104.09 506.34L95.3 498.56L86.84 490.49L78.72 482.12L70.94 473.46L63.53 464.54L56.49 455.34L49.83 445.9L43.56 436.2L37.69 426.27L32.23 416.11L27.19 405.74L22.58 395.15L18.42 384.37L14.71 373.39L11.45 362.24L8.67 350.91L6.38 339.42L4.57 327.78L3.27 316L2.48 304.08L2.22 292.04L2.48 280L3.27 268.08L4.57 256.3L6.38 244.66L8.67 233.17L11.45 221.84L14.71 210.69L18.42 199.71L22.58 188.93L27.19 178.34L32.23 167.96L37.69 157.81L43.56 147.88L49.83 138.18L56.49 128.73L63.53 119.54L70.94 110.61L78.72 101.96L86.84 93.59L95.3 85.52L104.09 77.74L113.19 70.28L122.61 63.14L132.33 56.33L142.33 49.86L152.61 43.74L163.16 37.98L173.97 32.59L185.02 27.57L196.31 22.94L207.83 18.71L219.56 14.88L231.5 11.47L243.64 8.48L255.96 5.93L268.46 3.82L281.12 2.16L293.94 0.97L306.91 0.24L320.01 0L333.11 0.24L346.07 0.97ZM319.36 135.62L319 135.65L318.64 135.69L318.28 135.75L317.93 135.82L317.58 135.91L317.24 136.01L316.9 136.12L316.56 136.24L316.23 136.38L315.91 136.53L315.59 136.69L315.28 136.86L314.97 137.05L314.68 137.24L314.39 137.45L314.1 137.67L313.83 137.9L313.56 138.14L313.3 138.4L313.06 138.66L312.82 138.93L312.59 139.22L312.37 139.51L312.16 139.81L311.97 140.13L311.79 140.45L311.61 140.78L311.45 141.12L311.31 141.47L311.17 141.83L277.38 238.87L174.7 241.01L174.49 241.02L174.27 241.03L173.85 241.07L173.65 241.1L173.23 241.16L173.03 241.2L172.82 241.25L172.42 241.35L172.02 241.47L171.82 241.54L171.63 241.61L171.43 241.68L171.05 241.84L170.86 241.93L170.68 242.02L170.49 242.12L170.31 242.22L170.13 242.33L169.96 242.43L169.78 242.55L169.61 242.66L169.44 242.78L169.27 242.91L169.11 243.03L168.95 243.17L168.79 243.3L168.63 243.44L168.48 243.58L168.18 243.88L168.04 244.03L167.76 244.35L167.63 244.52L167.5 244.68L167.27 244.99L167.06 245.31L166.86 245.63L166.68 245.96L166.51 246.29L166.36 246.62L166.22 246.97L166.1 247.31L165.99 247.66L165.89 248.01L165.81 248.36L165.74 248.71L165.68 249.07L165.64 249.42L165.6 250.14L165.6 250.5L165.62 250.85L165.65 251.21L165.69 251.56L165.74 251.92L165.81 252.27L165.89 252.61L165.99 252.96L166.1 253.3L166.22 253.64L166.35 253.97L166.5 254.3L166.66 254.62L166.84 254.94L167.02 255.25L167.22 255.55L167.43 255.85L167.66 256.14L167.9 256.42L168.15 256.7L168.41 256.96L168.69 257.22L168.97 257.47L169.27 257.71L251.13 319.83L221.43 418.19L221.37 418.4L221.32 418.6L221.22 419.02L221.18 419.22L221.09 419.85L221.07 420.05L221.05 420.26L221.04 420.47L221.04 420.68L221.03 420.89L221.04 421.1L221.04 421.31L221.05 421.51L221.09 421.93L221.12 422.13L221.15 422.34L221.18 422.54L221.22 422.75L221.27 422.95L221.31 423.15L221.37 423.35L221.42 423.55L221.49 423.75L221.55 423.95L221.62 424.15L221.7 424.34L221.78 424.54L221.86 424.73L221.95 424.92L222.05 425.11L222.14 425.29L222.25 425.48L222.35 425.66L222.46 425.84L222.58 426.02L222.7 426.19L222.92 426.5L223.16 426.8L223.4 427.09L223.66 427.36L223.92 427.62L224.2 427.87L224.48 428.11L225.06 428.55L225.36 428.75L225.67 428.93L225.99 429.11L226.31 429.27L226.64 429.42L226.97 429.55L227.31 429.68L227.99 429.88L228.34 429.96L228.69 430.03L229.04 430.09L229.39 430.13L229.75 430.16L230.11 430.18L230.46 430.18L230.82 430.17L231.18 430.14L231.54 430.1L231.89 430.05L232.25 429.98L232.6 429.9L232.95 429.8L233.3 429.69L233.65 429.57L233.99 429.43L234.33 429.28L234.66 429.11L235.32 428.73L235.64 428.51L320.01 369.87L404.39 428.51L404.57 428.63L404.74 428.75L404.93 428.86L405.11 428.97L405.29 429.07L405.48 429.17L405.86 429.35L406.24 429.51L406.44 429.59L406.63 429.66L406.83 429.73L407.23 429.85L407.63 429.95L407.84 429.99L408.04 430.03L408.25 430.07L408.45 430.1L408.66 430.12L408.86 430.14L409.07 430.16L409.49 430.18L409.9 430.18L410.32 430.16L410.95 430.1L411.15 430.06L411.36 430.03L411.57 429.99L411.78 429.94L411.98 429.89L412.19 429.84L412.39 429.78L412.76 429.66L413.11 429.53L413.46 429.39L413.8 429.23L414.13 429.06L414.45 428.88L415.07 428.48L415.36 428.26L415.92 427.8L416.18 427.55L416.43 427.29L416.67 427.03L416.91 426.76L417.13 426.47L417.53 425.89L417.72 425.58L417.89 425.27L418.06 424.95L418.21 424.63L418.47 423.97L418.58 423.63L418.68 423.28L418.77 422.93L418.84 422.58L418.9 422.23L418.94 421.87L418.97 421.51L418.99 421.14L418.99 420.78L418.98 420.41L418.96 420.04L418.86 419.3L418.79 418.93L418.7 418.56L418.59 418.19L388.9 319.83L470.74 257.71L470.91 257.57L471.08 257.44L471.24 257.3L471.4 257.16L471.85 256.71L472 256.55L472.14 256.39L472.27 256.23L472.41 256.07L472.54 255.9L472.78 255.56L472.9 255.38L473.01 255.21L473.12 255.03L473.23 254.84L473.33 254.66L473.69 253.9L473.76 253.71L473.84 253.51L473.98 253.11L474.04 252.91L474.09 252.71L474.15 252.5L474.19 252.3L474.24 252.09L474.27 251.88L474.31 251.67L474.34 251.46L474.36 251.25L474.38 251.03L474.4 250.61L474.41 250.39L474.4 250.01L474.38 249.63L474.35 249.25L474.3 248.88L474.24 248.52L474.16 248.15L474.07 247.8L473.96 247.45L473.84 247.1L473.71 246.77L473.57 246.43L473.41 246.11L473.24 245.79L473.06 245.48L472.87 245.18L472.45 244.6L472.22 244.32L471.99 244.05L471.74 243.79L471.49 243.54L471.23 243.3L470.95 243.07L470.67 242.86L470.38 242.65L470.08 242.45L469.77 242.26L469.46 242.09L469.14 241.93L468.81 241.78L468.47 241.64L468.13 241.51L467.78 241.4L467.43 241.3L467.07 241.22L466.7 241.15L466.33 241.09L465.96 241.05L465.58 241.02L465.2 241.01L362.51 238.87L328.72 141.83L328.65 141.63L328.57 141.44L328.49 141.24L328.41 141.05L328.32 140.86L328.22 140.67L328.13 140.49L328.03 140.3L327.81 139.94L327.7 139.77L327.34 139.26L327.08 138.94L326.94 138.78L326.81 138.63L326.66 138.47L326.37 138.18L326.07 137.9L325.75 137.64L325.58 137.51L325.42 137.38L325.25 137.26L325.08 137.15L324.9 137.03L324.72 136.93L324.54 136.82L324.36 136.72L324.17 136.62L323.99 136.53L323.8 136.44L323.6 136.35L323.41 136.27L323.21 136.2L323.01 136.12L322.65 136.01L322.28 135.9L321.92 135.81L321.55 135.74L321.18 135.68L320.81 135.64L320.45 135.62L320.08 135.6L319.72 135.6L319.36 135.62Z" id="dZtMCsIU"></path></defs><g><g><g><use xlink:href="#a4r3DdWkNQ" opacity="1" fill="#fd9927" fill-opacity="1"></use><g><use xlink:href="#a4r3DdWkNQ" opacity="1" fill-opacity="0" stroke="#000000" stroke-width="1" stroke-opacity="0"></use></g></g><g><use xlink:href="#dZtMCsIU" opacity="1" fill="#000000" fill-opacity="0"></use><g><use xlink:href="#dZtMCsIU" opacity="1" fill-opacity="0" stroke="#000000" stroke-width="1" stroke-opacity="0"></use></g></g></g></g></svg>