<svg fill="#0C2445" xmlns="http://www.w3.org/2000/svg" xmlns:xlink="http://www.w3.org/1999/xlink" version="1.1" x="0px" y="0px" viewBox="0.5 24.5 24 24" enable-background="new 0.5 24.5 24 24" xml:space="preserve"><g><path d="M15.499,24.499l3.086,3.086c-2.945,2.945-9.195,9.196-9.5,9.5c-0.781,0.781-0.781,2.047,0,2.828s2.047,0.781,2.828,0   c0.304-0.305,6.554-6.555,9.5-9.5l3.086,3.086v-9H15.499z"></path><path d="M21.5,36.5c-0.553,0-1,0.447-1,1v7h-16v-16h7c0.552,0,1-0.447,1-1s-0.448-1-1-1h-7c-1.104,0-2,0.895-2,2v16   c0,1.105,0.896,2,2,2h16c1.104,0,2-0.895,2-2v-7C22.5,36.947,22.053,36.5,21.5,36.5z"></path></g></svg>